<svg width="0" height="0" class="hidden">
  <symbol id="shoes_icon" version="1.1" xml:space="preserve" sodipodiDocname="shoes_icon.svg" inkscapeVersion="1.1 (c68e22c387, 2021-05-23)" xmlnsInkscape="http://www.inkscape.org/namespaces/inkscape" xmlnsSodipodi="http://sodipodi.sourceforge.net/DTD/sodipodi-0.dtd" xmlns="http://www.w3.org/2000/svg" xmlnsSvg="http://www.w3.org/2000/svg" viewBox="0 0 66 66">
    <defs id="defs15"></defs>
    <sodipodi:namedview id="namedview13" pagecolor="#ffffff" bordercolor="#666666" borderopacity="1.0" inkscapePageshadow="2" inkscapePageopacity="0.0" inkscapePagecheckerboard="0" showgrid="false" inkscapeZoom="13.060606" inkscapeCx="33.038283" inkscapeCy="32.732019" inkscapeWindowWidth="1842" inkscapeWindowHeight="1051" inkscapeWindowX="69" inkscapeWindowY="-9" inkscapeWindowMaximized="1" inkscapeCurrentLayer="Layer_1"></sodipodi:namedview>
    <g id="g10">
      <path d="M64.23,39.61l-0.96-2.75c0.03-0.06,0.05-0.13,0.05-0.19c0-6.51-5.1-11.81-11.62-12.05c-3.32-0.12-7.31-0.38-8.05-0.52   c-0.03-0.01-0.05-0.01-0.08-0.02c0,0,0,0,0,0c0,0,0,0,0,0c0,0,0,0-0.01,0c-0.44-0.09-0.85-0.21-1.23-0.36c0,0,0,0,0,0c0,0,0,0,0,0   c-0.03-0.01-0.07-0.02-0.1-0.04c0,0,0,0-0.01,0c0,0,0,0,0,0c-5.27-2.16-6.58-11.6-6.91-15.56c-0.11-1.33-1.19-2.33-2.52-2.33h-4.22   H16.85h0c-1.05,0-1.95,0.64-2.33,1.55c-0.13,0.3-0.2,0.64-0.2,0.98v2.44v9.49H4.17c-1.4,0-2.53,1.14-2.53,2.53v2.44v12.85v9.5v0.04   c0,0.36,0.05,0.7,0.13,1.04c-0.08,0.09-0.13,0.2-0.13,0.32v8.66c0,1.4,1.14,2.53,2.53,2.53h9.27c0.98,0,1.88-0.53,2.36-1.39   l0.32-0.58c0.3-0.54,0.87-0.87,1.49-0.87h3.17c0.55,0,1.07,0.27,1.39,0.71l0.57,0.79c0.46,0.64,1.17,1.05,1.95,1.13   c1.95,0.18,3.87,0.27,5.79,0.27c6.67,0,13.17-1.1,19.72-3.33c0.55-0.19,1-0.58,1.25-1.11c0.26-0.54,0.3-1.14,0.1-1.71l-0.96-2.75   c0.03-0.06,0.05-0.13,0.05-0.19c0-2.07-0.52-4.02-1.44-5.72c4.62-0.47,9.21-1.46,13.67-2.98c0.55-0.19,1-0.58,1.25-1.11   C64.39,40.78,64.43,40.18,64.23,39.61z M42.62,25.18c0.02-0.11,0.02-0.32,0.06-0.31c0.25,0.07,0.44,0.14,0.7,0.19   c0,0,0.01,0,0.01,0c0.03,0.01,0.05,0.01,0.08,0.02c0.87,0.16,5.12,0.42,8.2,0.53c5.88,0.22,10.5,4.92,10.65,10.76   c-0.02,0.01-0.04,0.02-0.06,0.03c-2.77,2.06-7.02,2.76-7.53,2.89c-0.21-0.03-0.42-0.08-0.63-0.12   C44.68,37.47,42.27,27.38,42.62,25.18z M15.31,8.32c0-0.84,0.69-1.53,1.53-1.53h11.23v2.36c0,0.61-0.5,1.11-1.11,1.11H15.31V8.32z    M15.31,11.25h11.65c1.16,0,2.11-0.95,2.11-2.11V6.78h3.72c0.8,0,1.46,0.61,1.53,1.41c0.11,1.34,0.34,3.29,0.78,5.4l-3.03,1.94   c-0.23,0.15-0.3,0.46-0.15,0.69c0.1,0.15,0.26,0.23,0.42,0.23c0.09,0,0.19-0.03,0.27-0.08l2.73-1.74c0.29,1.18,0.65,2.38,1.1,3.53   l-2.16,1.37c-0.23,0.15-0.3,0.46-0.15,0.69c0.09,0.15,0.26,0.23,0.42,0.23c0.09,0,0.18-0.03,0.27-0.08l2.02-1.28   c0.47,1.04,1.04,2.01,1.7,2.86l-1.69,1.08c-0.23,0.15-0.3,0.46-0.15,0.69c0.1,0.15,0.26,0.23,0.42,0.23c0.09,0,0.19-0.03,0.27-0.08   l1.81-1.16c0.61,0.65,1.29,1.19,2.06,1.59l-2.2,1.4c-0.23,0.15-0.3,0.46-0.15,0.69c0.09,0.15,0.26,0.23,0.42,0.23   c0.09,0,0.19-0.03,0.27-0.08l1.91-1.21c1.08,11.19,9.23,13.87,9.4,13.94c0.24,0.1,0.48,0.19,0.72,0.28   c0.17,0.06,0.34,0.12,0.51,0.18c0.07,0.02,0.14,0.05,0.21,0.07c-0.04,0.01-0.08,0.01-0.12,0.02c-0.69,0.12-1.38,0.21-2.06,0.28   c-0.05,0.01-0.1,0.01-0.16,0.01c-0.66,0.06-1.32,0.11-1.98,0.13c-0.08,0-0.15,0.01-0.23,0.01c-0.67,0.02-1.34,0.01-2.01-0.02   c-0.14-0.01-0.28-0.01-0.41-0.02c-0.64-0.03-1.28-0.08-1.93-0.16c-0.03,0-0.07-0.01-0.1-0.01c-1.25-0.53-2.61-0.86-4.04-0.94   c-0.09-0.01-0.18-0.02-0.27-0.02c0,0-0.57-0.02-0.57-0.02c-2-0.08-4-0.28-5.99-0.45c-1.65-0.14-3.34-0.48-4.64-1.57   c-0.08-0.07-0.17-0.14-0.25-0.22c-0.23-0.22-0.45-0.45-0.66-0.7c-0.08-0.1-0.64-0.67-0.6-0.78c0.33-0.98,0.51-2.01,0.51-3.05   c0-3.08-1.49-5.94-3.98-7.73c-0.01-0.12-0.03-0.24-0.05-0.35c-0.01-0.07-0.01-0.13-0.02-0.2c-0.03-0.23-0.05-0.45-0.07-0.66   c-0.03-0.27-0.05-0.53-0.07-0.76c-0.11-1.33-1.19-2.33-2.52-2.33h-4.22h-0.59V11.25z M25.84,32.28c0,0.65-0.07,1.29-0.22,1.91   c-0.03-0.05-0.06-0.1-0.09-0.15c-0.1-0.18-1.72-3.29-2.47-8.05C24.82,27.59,25.84,29.87,25.84,32.28z M2.64,22.77   c0-0.84,0.69-1.53,1.53-1.53h10.64h0.59v2.36c0,0.61-0.5,1.11-1.11,1.11H2.64V22.77z M2.64,25.71h11.65c1.16,0,2.11-0.95,2.11-2.11   v-2.36h3.72c0.8,0,1.46,0.61,1.53,1.41c0.02,0.25,0.75,5.25,0.78,5.4l-3.03,1.94c-0.23,0.15-0.3,0.46-0.15,0.69   c0.1,0.15,0.26,0.23,0.42,0.23c0.09,0,0.19-0.03,0.27-0.08l2.73-1.74c0.1,0.4,0.2,0.8,0.32,1.2c0.02,0.07,0.04,0.13,0.06,0.2   c0.11,0.38,0.23,0.76,0.36,1.14c0.05,0.14,0.11,0.28,0.16,0.43c0.07,0.19,0.13,0.37,0.21,0.56l-2.16,1.37   c-0.23,0.15-0.3,0.46-0.15,0.69c0.09,0.15,0.26,0.23,0.42,0.23c0.09,0,0.19-0.03,0.27-0.08l2.02-1.28   c0.11,0.24,0.22,0.47,0.34,0.71c0.07,0.13,0.14,0.27,0.21,0.4c0.16,0.29,0.33,0.58,0.51,0.85c0.04,0.07,0.08,0.14,0.12,0.21   c0.01,0.01,0.02,0.01,0.03,0.02c0.16,0.23,0.32,0.46,0.49,0.68l-1.69,1.08c-0.23,0.15-0.3,0.46-0.15,0.69   c0.1,0.15,0.26,0.23,0.42,0.23c0.09,0,0.19-0.03,0.27-0.08l1.81-1.15c0.6,0.64,1.28,1.16,2.03,1.56c0,0,0,0,0,0c0,0,0,0,0,0   c0.01,0.01,0.02,0.01,0.04,0.02l-2.2,1.4c-0.23,0.15-0.3,0.46-0.15,0.69c0.09,0.15,0.26,0.23,0.42,0.23c0.09,0,0.18-0.03,0.27-0.08   l1.91-1.21c0.07,6.73,4.58,12.56,10.87,14.46c-2.13,0.37-4.27,0.52-6.4,0.45c-2.87-0.09-5.72-0.58-8.44-1.47   c-0.33-0.11-0.66-0.2-1-0.29c-1.01-0.26-2.05-0.41-3.11-0.46c-0.21-0.01-0.46-0.02-0.74-0.03c-1.76-0.08-4.71-0.22-7.48-0.39   c1.05-1.57,1.62-3.42,1.62-5.32c0-5.25-4.27-9.53-9.52-9.53c-0.68,0-1.35,0.09-2,0.23V25.71z M2.64,38.45   c0.65-0.16,1.32-0.24,2-0.24c4.7,0,8.52,3.83,8.52,8.53c0,1.92-0.62,3.73-1.79,5.24c-0.08-0.01-0.16-0.01-0.23-0.02   c-0.5-0.04-0.99-0.07-1.46-0.11c-0.07-0.01-0.14-0.01-0.21-0.02c-0.52-0.04-1.01-0.1-1.48-0.12c-2.42-0.1-4.03-1.57-4.94-2.54   c0-0.01,0-0.01-0.01-0.01C3.01,49.11,3,49.04,2.97,48.98c-0.2-0.42-0.33-0.9-0.33-1.42V38.45z M50.62,54.4   c0.11,0.31,0.09,0.64-0.06,0.94c-0.14,0.29-0.38,0.5-0.68,0.6c-8.29,2.82-16.5,3.81-25.09,3.01c-0.49-0.05-0.94-0.3-1.23-0.71   l-0.57-0.79c-0.51-0.71-1.33-1.13-2.2-1.13h-3.17c-0.98,0-1.88,0.53-2.36,1.39l-0.32,0.58c-0.3,0.54-0.87,0.87-1.49,0.87h-1.1   v-2.83c0-0.28-0.22-0.5-0.5-0.5s-0.5,0.22-0.5,0.5v2.83H9.09v-2.83c0-0.28-0.22-0.5-0.5-0.5s-0.5,0.22-0.5,0.5v2.83H5.83v-2.83   c0-0.28-0.22-0.5-0.5-0.5s-0.5,0.22-0.5,0.5v2.83H4.17c-0.84,0-1.53-0.69-1.53-1.53v-7.29c0,0,0,0,0.01,0.01   c0,0,0.95,1.15,2.17,1.72c1.29,0.61,2.86,0.64,3.08,0.66c0.3,0.03,0.63,0.05,0.96,0.08c0.84,0.07,1.75,0.13,2.7,0.2   c3.45,0.23,7.44,0.4,9.15,0.48c1.32,0.06,2.64,0.22,3.85,0.71c6.68,2.7,15.32,1.05,15.52,1.02c0.69-0.12,1.38-0.27,2.07-0.43   c0.02,0,0.03-0.01,0.05-0.01c0.01,0,0.01,0,0.02-0.01c3.7-0.91,6.36-2.19,7.53-2.83L50.62,54.4z M49.64,50.84   c-0.01,0.01-0.11,0.18-0.26,0.33c-0.16,0.15-0.44,0.3-0.5,0.33c-2.83,1.1-5.08,1.79-5.37,1.87c-0.47,0.14-0.96,0.27-1.47,0.4   c-6.97-1.01-12.22-7.06-12.22-14.12c0-0.11,0-0.23,0-0.34c0.02,0.01,0.04,0.01,0.06,0.01c0.29,0.09,0.59,0.16,0.91,0.22   c0.88,0.16,5.12,0.42,8.2,0.53c0.36,0.01,0.71,0.04,1.06,0.09c0.29,0.04,0.57,0.1,0.85,0.16l0.16,0.03   c0.64,0.15,1.29,0.36,1.92,0.64c0.01,0,0.02,0,0.03,0.01c2.04,0.9,3.75,2.37,4.93,4.27c0.01,0.01,0.02,0.02,0.03,0.03   C48.99,46.91,49.59,48.8,49.64,50.84z M63.23,40.88c-0.14,0.29-0.38,0.5-0.68,0.6c-4.53,1.54-9.21,2.55-13.9,2.99   c-0.84-1.27-1.91-2.37-3.17-3.24c0.16,0.01,0.32-0.02,0.48,0.01c4.33,0.6,9.72-1.15,10.12-1.26c0.08-0.02,0.15-0.04,0.23-0.06   c2.95-0.86,5.09-1.9,6.1-2.44l0.87,2.47C63.4,40.25,63.38,40.59,63.23,40.88z" id="path2"></path>
      <path d="M18,45.69c0.28,0,0.5-0.22,0.5-0.5v-3.33c0-0.28-0.22-0.5-0.5-0.5s-0.5,0.22-0.5,0.5v3.33C17.5,45.47,17.73,45.69,18,45.69   z" id="path4"></path>
      <path d="M21.26,45.69c0.28,0,0.5-0.22,0.5-0.5v-3.33c0-0.28-0.22-0.5-0.5-0.5s-0.5,0.22-0.5,0.5v3.33   C20.76,45.47,20.99,45.69,21.26,45.69z" id="path6"></path>
      <path d="M24.52,45.69c0.28,0,0.5-0.22,0.5-0.5v-3.33c0-0.28-0.22-0.5-0.5-0.5s-0.5,0.22-0.5,0.5v3.33   C24.02,45.47,24.25,45.69,24.52,45.69z" id="path8"></path>
    </g>
    <path d="m 28.061485,60.132193 c -0.189501,-0.01212 -0.999188,-0.06013 -1.799304,-0.106691 -0.800116,-0.04657 -1.661485,-0.135214 -1.914153,-0.196997 -0.704601,-0.172291 -1.185806,-0.53795 -1.803182,-1.370209 -0.374985,-0.505501 -0.645911,-0.787885 -0.898204,-0.93619 l -0.361259,-0.212361 -1.937341,-0.02395 c -2.619867,-0.03239 -2.763396,0.02027 -3.490404,1.280692 -0.379862,0.658569 -0.697087,0.974682 -1.293759,1.289225 l -0.399146,0.210414 -5.2173245,0.02118 C 3.8400405,60.108034 3.7211997,60.105156 3.3085359,59.950759 2.7178044,59.729737 2.2390702,59.281754 1.9361083,58.666484 L 1.6844548,58.155415 1.6952753,53.521443 C 1.7012266,50.972759 1.707201,48.766879 1.7085517,48.61949 1.7099024,48.4721 1.6950146,42.632019 1.6754676,35.641531 1.6391037,22.636886 1.6457594,22.26989 1.9280652,21.713371 2.1622977,21.25162 2.55855,20.850682 3.037085,20.591235 l 0.4849568,-0.262929 5.4149198,-0.02112 5.4149194,-0.02112 0.02128,-6.295587 0.02127,-6.2955864 0.212236,-0.4320519 C 14.85438,6.7585728 15.359414,6.2643299 15.870649,6.0258669 l 0.36137,-0.1685583 h 8.537123 c 9.685532,0 8.930938,-0.050164 9.671958,0.6429735 0.630062,0.5893493 0.72854,0.8726142 0.936807,2.6946734 0.680394,5.9525155 2.09028,10.1282465 4.274307,12.6594345 0.894002,1.036107 2.269731,1.87592 3.573962,2.181722 0.661275,0.155049 2.548913,0.323055 5.201898,0.462989 0.821172,0.04331 2.13997,0.112709 2.930663,0.154214 2.238674,0.11751 3.52282,0.42947 5.22363,1.268985 1.243584,0.613829 2.228786,1.315373 3.17247,2.259058 2.113993,2.113993 3.386489,5.0005 3.496714,7.931887 0.03412,0.907518 0.04756,0.967296 0.530361,2.359205 0.403429,1.163085 0.495212,1.516007 0.494602,1.901836 -9.57e-4,0.605034 -0.236906,1.127436 -0.702104,1.554472 -0.393832,0.361526 -0.690563,0.482492 -2.611756,1.064712 -3.473971,1.052794 -7.592275,1.915903 -10.811842,2.265934 -0.463225,0.05036 -0.868723,0.114425 -0.901107,0.142363 -0.03238,0.02794 0.07527,0.341283 0.239228,0.696324 0.651033,1.409757 1.082993,3.252484 1.082993,4.620019 0,0.673365 0.02261,0.768972 0.500595,2.1171 0.275328,0.776539 0.520742,1.555016 0.545363,1.729946 0.101567,0.721607 -0.321287,1.622161 -0.949218,2.021556 -0.851569,0.541641 -6.034933,1.983111 -9.322958,2.592673 -2.416484,0.447989 -5.321313,0.788295 -7.886311,0.923896 -1.304277,0.06895 -4.503612,0.08609 -5.397912,0.02891 z m 6.546404,-1.023231 c 5.04738,-0.378829 9.766655,-1.319506 14.631152,-2.916378 1.1652,-0.382501 1.486318,-0.684061 1.48586,-1.395364 -1.53e-4,-0.197235 -0.854086,-2.769792 -0.9519,-2.867607 -0.01503,-0.01503 -0.33451,0.126937 -0.709946,0.315492 -1.575932,0.79148 -3.949143,1.688328 -5.889355,2.225615 -3.010881,0.833779 -5.929966,1.210714 -9.369756,1.209897 -3.622105,-8.58e-4 -5.752866,-0.334623 -8.88167,-1.391221 C 24.037966,53.990765 23.035091,53.70646 22.62529,53.638226 22.225232,53.571614 20.502494,53.44929 18.796984,53.366395 12.299241,53.050579 7.2617223,52.695011 6.2401392,52.480085 5.065123,52.232879 4.236766,51.788506 3.289727,50.897332 2.9429051,50.570969 2.6361875,50.303944 2.6081325,50.303944 c -0.028055,0 -0.040368,1.731352 -0.027363,3.847448 0.025368,4.127658 0.021877,4.090836 0.4293218,4.527056 0.3197848,0.342369 0.7455258,0.503567 1.3350362,0.505485 l 0.5168214,0.0017 V 57.70963 c 0,-1.211978 0.021321,-1.506443 0.1191907,-1.646172 0.1424744,-0.20341 0.4597364,-0.224312 0.6595831,-0.04345 0.1266881,0.114651 0.1400197,0.271385 0.1400197,1.646171 v 1.519456 h 1.1867749 1.1867749 v -1.506152 c 0,-1.659361 0.033154,-1.786192 0.466922,-1.786192 0.4076898,0 0.4518715,0.177593 0.4518715,1.816341 v 1.476003 h 1.1484923 1.148492 v -1.476003 c 0,-1.211978 0.02132,-1.506443 0.11919,-1.646172 0.142475,-0.20341 0.459737,-0.224312 0.659584,-0.04345 0.126687,0.114651 0.140019,0.271385 0.140019,1.646171 v 1.519456 l 0.784803,-0.0017 c 1.183291,-0.0025 1.526276,-0.21396 2.185283,-1.347063 0.368542,-0.633675 0.722038,-0.969051 1.314123,-1.246762 0.41858,-0.196329 0.453178,-0.199494 2.437147,-0.222953 1.688243,-0.01996 2.083049,-0.0035 2.450116,0.101933 0.698416,0.200676 1.10752,0.512603 1.690147,1.288676 0.61263,0.816038 0.719965,0.920683 1.11262,1.084745 0.84434,0.352788 7.061052,0.512913 10.344787,0.266453 z m 3.636891,-4.588134 c 1.650675,-0.213011 1.710903,-0.240111 1.03208,-0.464383 -3.688868,-1.218741 -6.902775,-4.008467 -8.712147,-7.562296 -0.958771,-1.883145 -1.472976,-3.763403 -1.642921,-6.007566 l -0.05636,-0.744275 -1.028782,0.648567 c -0.56583,0.356713 -1.107697,0.648568 -1.204151,0.648568 -0.225607,0 -0.441064,-0.319617 -0.379856,-0.563491 0.03307,-0.131742 0.372517,-0.388377 1.233244,-0.932367 0.653191,-0.412825 1.178736,-0.759476 1.167876,-0.770335 -0.01086,-0.01086 -0.292177,-0.197591 -0.62515,-0.414958 C 27.69564,38.140925 27.22589,37.77487 26.984722,37.544834 l -0.438486,-0.418244 -0.966889,0.616519 c -0.531789,0.339086 -1.040899,0.61652 -1.131357,0.61652 -0.326242,0 -0.558011,-0.396666 -0.38591,-0.660472 0.03094,-0.04742 0.46244,-0.349563 0.95889,-0.671417 0.621398,-0.402862 0.883806,-0.614556 0.842198,-0.679436 -0.03324,-0.05183 -0.25633,-0.389001 -0.495753,-0.74926 -0.239423,-0.360259 -0.595094,-0.971831 -0.790379,-1.359049 -0.195287,-0.387218 -0.378385,-0.703717 -0.406885,-0.703332 -0.0285,3.83e-4 -0.516958,0.294364 -1.085461,0.653286 -1.154749,0.729048 -1.405332,0.79101 -1.594556,0.394284 -0.151888,-0.318446 -0.04951,-0.422505 1.211725,-1.231609 0.610615,-0.39172 1.102594,-0.743287 1.093286,-0.781261 -0.0093,-0.03797 -0.172067,-0.516955 -0.361686,-1.064402 -0.18962,-0.547448 -0.427367,-1.305453 -0.528328,-1.684455 -0.136777,-0.51346 -0.21446,-0.686533 -0.30478,-0.679042 -0.06667,0.0055 -0.720911,0.393145 -1.45387,0.861369 -1.516804,0.968952 -1.647661,1.007781 -1.884077,0.559058 -0.07576,-0.14379 -0.07232,-0.209686 0.01814,-0.347746 0.06139,-0.09369 0.807395,-0.6138 1.657798,-1.15581 1.534229,-0.97785 1.545857,-0.987301 1.50323,-1.22186 -0.02363,-0.130013 -0.216395,-1.4401 -0.428372,-2.911306 -0.444224,-3.083097 -0.475206,-3.176867 -1.16285,-3.519535 L 20.451372,21.208817 H 18.39912 16.346868 v 1.36455 c 0,1.633808 -0.07362,1.932138 -0.608883,2.467402 -0.638448,0.638448 -0.293718,0.608883 -7.0996523,0.608883 H 2.6415313 v 5.919481 5.919482 l 0.5551044,-0.09742 c 0.7554444,-0.132575 2.2714736,-0.127812 3.0595237,0.0096 3.2098523,0.559751 5.9774986,2.802506 7.1875176,5.824384 0.131231,0.327735 0.327074,0.926134 0.435205,1.329775 0.176479,0.658773 0.197026,0.878879 0.200737,2.150366 0.0035,1.204637 -0.02044,1.513805 -0.160194,2.067286 -0.251366,0.995516 -0.604345,1.905048 -1.022037,2.633509 -0.208355,0.363372 -0.378827,0.672249 -0.378827,0.686391 0,0.01414 0.456526,0.04881 1.014502,0.07704 9.581514,0.484713 9.103175,0.433806 11.848608,1.260998 2.053211,0.618629 4.205209,1.033748 6.393271,1.233259 1.353907,0.123451 5.035702,0.04208 6.469838,-0.142987 z m 4.992434,-1.035175 c 1.803694,-0.524155 5.122275,-1.684812 5.776783,-2.020401 0.162023,-0.08308 0.377344,-0.239713 0.47849,-0.348084 0.17668,-0.189299 0.181895,-0.226432 0.132775,-0.945386 -0.136561,-1.998778 -0.898771,-3.97854 -2.197868,-5.70874 -1.590448,-2.118236 -3.83232,-3.569311 -6.425157,-4.158755 -0.809533,-0.184035 -1.448428,-0.23725 -4.977875,-0.41462 -3.394804,-0.170603 -5.180819,-0.337197 -5.915227,-0.551753 -0.158189,-0.04621 -0.303113,-0.06853 -0.322054,-0.04959 -0.08537,0.08537 0.127215,2.381312 0.299094,3.230195 0.950016,4.691968 4.235551,8.611744 8.740652,10.427952 0.864034,0.348331 2.442334,0.780813 3.185329,0.872836 0.02966,0.0037 0.580932,-0.146472 1.225058,-0.333654 z M 11.80089,51.445553 C 13.15147,49.35777 13.54462,46.729227 12.859777,44.365979 11.941809,41.198264 9.2354642,38.800311 5.9918232,38.28064 5.3073958,38.170987 3.3080402,38.22041 2.8479194,38.35836 l -0.2912918,0.08733 0.02422,4.838057 0.02422,4.838058 0.1835362,0.521085 c 0.1642652,0.466372 0.2536675,0.586961 0.8514672,1.148492 1.170853,1.099816 2.464716,1.737013 3.8537231,1.897869 0.9843564,0.113995 2.9890629,0.279536 3.5141309,0.290184 l 0.441799,0.009 z m 38.749585,-7.152584 c 3.782777,-0.479437 7.558596,-1.323662 11.198577,-2.503861 1.082359,-0.350935 1.238219,-0.435111 1.454936,-0.785766 0.252164,-0.40801 0.200968,-0.814113 -0.277116,-2.198176 -0.237378,-0.687215 -0.456936,-1.277816 -0.487907,-1.312446 -0.03097,-0.03463 -0.443842,0.131388 -0.917491,0.368932 -1.661818,0.833434 -3.297049,1.447825 -5.704769,2.143409 -3.61843,1.045353 -6.704566,1.469957 -9.176081,1.262482 -0.620329,-0.05207 -1.143506,-0.07905 -1.162614,-0.05994 -0.01911,0.01911 0.237394,0.249098 0.570007,0.511088 0.724883,0.570969 1.666019,1.539931 2.184808,2.249404 0.309495,0.423252 0.41641,0.516822 0.590538,0.516822 0.116942,0 0.894142,-0.08638 1.727112,-0.19195 z m -1.088758,-4.09816 c 0.998942,-0.08414 2.592436,-0.283875 2.825234,-0.35412 0.09837,-0.02968 -0.149351,-0.153443 -0.765661,-0.382525 -2.1245,-0.789671 -3.528348,-1.676322 -5.11137,-3.228266 -1.307336,-1.281671 -2.239354,-2.591255 -3.06869,-4.311832 -0.836118,-1.734648 -1.351431,-3.458273 -1.655961,-5.538871 -0.08612,-0.588368 -0.163406,-1.07659 -0.171753,-1.084936 -0.0083,-0.0083 -0.472336,0.27493 -1.031085,0.629505 -0.55875,0.354575 -1.084072,0.644681 -1.167383,0.644681 -0.192898,0 -0.457739,-0.261863 -0.457739,-0.45259 0,-0.196394 0.259795,-0.40341 1.448635,-1.154337 0.552981,-0.34929 0.995921,-0.644016 0.984309,-0.654946 -0.01161,-0.01093 -0.279522,-0.192657 -0.595357,-0.403835 -0.315836,-0.211177 -0.785237,-0.575333 -1.043114,-0.809235 l -0.468869,-0.425275 -0.956659,0.610202 c -0.526162,0.335611 -1.030108,0.610202 -1.119879,0.610202 -0.179431,0 -0.469484,-0.249644 -0.469484,-0.404077 0,-0.206656 0.241881,-0.420003 1.062046,-0.936757 0.46705,-0.29427 0.849839,-0.557705 0.850644,-0.585411 8.04e-4,-0.02771 -0.21732,-0.377606 -0.484722,-0.777554 -0.267402,-0.39995 -0.648026,-1.040535 -0.845832,-1.423523 -0.197805,-0.382989 -0.374323,-0.696344 -0.39226,-0.696344 -0.01794,0 -0.490067,0.289621 -1.049179,0.6436 -0.559112,0.353981 -1.068249,0.653601 -1.131416,0.665823 -0.19797,0.03831 -0.449522,-0.08576 -0.500677,-0.246939 -0.109614,-0.345365 0.02184,-0.479298 1.189453,-1.21189 0.865838,-0.54325 1.141664,-0.753212 1.106432,-0.842227 -0.168904,-0.426747 -0.802126,-2.434995 -0.91254,-2.894098 -0.07343,-0.305307 -0.163297,-0.555104 -0.199712,-0.555104 -0.03641,0 -0.688293,0.39623 -1.448618,0.88051 -0.760324,0.484281 -1.456269,0.880511 -1.546543,0.880511 -0.362672,0 -0.581787,-0.46398 -0.33545,-0.710317 0.0598,-0.0598 0.774736,-0.533851 1.588747,-1.053447 0.814012,-0.519596 1.492643,-0.953762 1.508071,-0.964815 0.01543,-0.01105 -0.09511,-0.77122 -0.245633,-1.689262 C 34.699178,11.049269 34.520374,9.7640951 34.452361,9.1113689 34.308158,7.7274336 34.1725,7.3673557 33.659365,7.006501 L 33.331737,6.7761021 31.201534,6.7525716 29.07133,6.7290412 29.044946,8.169045 c -0.02962,1.6165589 -0.09693,1.867856 -0.647861,2.418789 -0.589634,0.589634 -0.10849,0.550122 -6.977711,0.573013 l -6.144432,0.02048 v 4.549932 4.549932 l 2.737239,0.02356 c 3.100354,0.02669 3.096991,0.02609 3.801794,0.675752 0.561987,0.518022 0.718338,0.946502 0.866201,2.373838 l 0.127114,1.227038 0.401875,0.310045 c 0.586199,0.452248 1.483619,1.41763 1.922254,2.067825 1.55054,2.298387 2.019813,4.952023 1.353033,7.651104 l -0.205358,0.831274 0.310073,0.370348 c 0.570861,0.681831 1.520979,1.529198 2.040202,1.819564 0.888536,0.496898 1.91331,0.792497 3.312076,0.955378 1.172177,0.136495 4.199722,0.377464 6.247431,0.497246 2.216035,0.129628 3.066667,0.270242 4.420173,0.730676 0.702778,0.239071 1.058242,0.313435 1.761021,0.368405 1.240717,0.09705 4.002362,0.103323 5.091647,0.01157 z m 6.783334,-1.218836 c 2.21875,-0.537387 4.006973,-1.244022 5.493183,-2.17069 L 62.3767,36.407193 62.32689,35.794664 C 62.108684,33.111153 61.004576,30.716781 59.112281,28.823447 57.5153,27.225591 55.55164,26.176291 53.391574,25.766533 c -0.602172,-0.11423 -1.130021,-0.151563 -4.886937,-0.345642 -3.292707,-0.170098 -5.221435,-0.36254 -5.754904,-0.574204 -0.107814,-0.04278 -0.13505,0.02359 -0.177977,0.433654 -0.142106,1.357508 0.50009,3.88078 1.532142,6.019988 2.039568,4.227558 5.363244,6.920393 9.688296,7.849434 0.481809,0.103495 0.944926,0.175972 1.029149,0.16106 0.08422,-0.01491 0.724889,-0.165595 1.423705,-0.33485 z M 25.740668,33.861369 c 0.03416,-0.200029 0.06112,-0.94942 0.05989,-1.665313 -0.0018,-1.076906 -0.03092,-1.415534 -0.168426,-1.961418 -0.22567,-0.895881 -0.676984,-1.915044 -1.188396,-2.683649 -0.459247,-0.690204 -1.312458,-1.662728 -1.391669,-1.586277 -0.07527,0.07265 0.45572,2.586465 0.790757,3.743566 0.524031,1.809818 1.587732,4.51678 1.77487,4.51678 0.03347,0 0.08881,-0.16366 0.122972,-0.363689 z M 14.87367,24.57814 c 0.502767,-0.306541 0.553799,-0.491677 0.554118,-2.010275 l 2.86e-4,-1.359048 H 9.6252723 3.8224704 L 3.485279,21.38109 c -0.7282285,0.372058 -0.9203138,0.881626 -0.9203138,2.441425 v 0.908343 l 6.0295824,-3.06e-4 c 5.8815294,-3.06e-4 6.0357104,-0.004 6.2791224,-0.152432 z M 27.579229,10.109828 c 0.457828,-0.2791536 0.517483,-0.4991665 0.5458,-2.0129603 l 0.02542,-1.3590487 -5.729518,4.288e-4 c -3.761847,2.833e-4 -5.828843,0.02801 -6.018734,0.080743 C 16.02582,6.9235115 15.593093,7.3082329 15.417733,7.6942407 15.303353,7.9460177 15.278,8.2040715 15.27662,9.1305123 l -0.0017,1.1293487 6.029582,-2.84e-4 c 5.845174,-2.75e-4 6.037079,-0.0049 6.274705,-0.149746 z" id="path1665"></path>
    <path d="m 17.698642,45.493391 c -0.110532,-0.122136 -0.126716,-0.375691 -0.126716,-1.98525 0,-1.575394 0.01759,-1.862826 0.120318,-1.965549 0.149635,-0.149636 0.415917,-0.154704 0.611567,-0.01164 0.140167,0.102492 0.148625,0.216134 0.148625,1.996891 0,1.780758 -0.0085,1.894399 -0.148625,1.996892 -0.203966,0.149143 -0.453529,0.136218 -0.605169,-0.03134 z" id="path1704"></path>
    <path d="m 20.940835,45.480278 c -0.144361,-0.14436 -0.153132,-0.25522 -0.153132,-1.935399 0,-1.971493 0.03217,-2.122605 0.451872,-2.122605 0.445964,0 0.466922,0.0951 0.466922,2.118872 0,1.684193 -0.01178,1.849489 -0.14002,1.965549 -0.188271,0.170382 -0.439448,0.159777 -0.625642,-0.02642 z" id="path1743"></path>
    <path d="m 24.206762,45.493391 c -0.110506,-0.122108 -0.126716,-0.375246 -0.126716,-1.978852 0,-1.684193 0.01178,-1.84949 0.14002,-1.965549 0.199847,-0.180859 0.517109,-0.159958 0.659583,0.04345 0.09959,0.142185 0.119191,0.463265 0.119191,1.952437 0,1.680179 -0.0088,1.791039 -0.153132,1.935399 -0.191095,0.191095 -0.472645,0.196873 -0.638946,0.01311 z" id="path1782"></path>
    <path d="m 26.683295,60.024799 c -1.730398,-0.119757 -2.386716,-0.218073 -2.802023,-0.419745 -0.380157,-0.184602 -0.821828,-0.606357 -1.589263,-1.517595 -0.204361,-0.242654 -0.505155,-0.52552 -0.668432,-0.628593 -0.295172,-0.186333 -0.308172,-0.187404 -2.275212,-0.187404 -2.686372,0 -2.797765,0.03894 -3.504802,1.225058 -0.36646,0.614771 -0.792681,1.044932 -1.310659,1.322777 L 14.136619,60.031865 8.7910472,60.010712 3.4454757,59.989559 3.034758,59.762074 C 2.5746478,59.507232 2.2208901,59.111366 1.9231994,58.518207 L 1.7227378,58.11878 1.7251019,40.56345 c 0.00147,-10.915442 0.030531,-17.772422 0.076836,-18.129304 0.060178,-0.463808 0.1276191,-0.651142 0.3513688,-0.976017 0.2739377,-0.397746 1.0288697,-0.981442 1.3600723,-1.051578 0.088987,-0.01884 2.545313,-0.04456 5.458502,-0.05714 2.913189,-0.01258 5.325022,-0.05118 5.359629,-0.08577 0.03461,-0.03459 0.07449,-2.876713 0.08862,-6.315821 l 0.0257,-6.2529254 0.234554,-0.4416596 c 0.273527,-0.5150474 0.662025,-0.8900287 1.209578,-1.1674952 l 0.390828,-0.1980472 8.551017,0.027109 c 6.708373,0.021268 8.617013,0.048373 8.857281,0.1257862 0.19616,0.063202 0.472816,0.268204 0.769537,0.5702272 0.572958,0.5831974 0.647672,0.8185274 0.916861,2.8879341 0.55506,4.2670289 1.246312,7.0008479 2.374921,9.3925169 1.27018,2.691678 2.706327,4.194957 4.738298,4.959789 0.903879,0.340219 2.486412,0.503086 7.432402,0.764908 1.22123,0.06465 2.513283,0.154063 2.87123,0.198702 1.324822,0.165213 2.601354,0.562421 3.890406,1.210543 2.137387,1.074658 4.150734,3.08519 5.220858,5.213563 0.808044,1.60712 1.166211,2.927582 1.299328,4.790255 0.06565,0.918664 0.111636,1.128524 0.534794,2.440663 0.361996,1.122483 0.462803,1.538382 0.462218,1.906957 -0.0014,0.858817 -0.471676,1.539705 -1.335665,1.933687 -0.212479,0.09689 -1.023737,0.367663 -1.802798,0.601716 -3.530772,1.06075 -7.177716,1.835374 -10.853248,2.305268 -0.557976,0.07133 -1.014501,0.157829 -1.014501,0.19221 0,0.03438 0.168718,0.486437 0.374929,1.004566 0.614303,1.543505 0.876083,2.690553 0.966379,4.234398 0.04451,0.761031 0.09755,0.98936 0.550118,2.368387 0.444219,1.353579 0.496417,1.575125 0.461593,1.959163 -0.07243,0.798793 -0.471005,1.353286 -1.234556,1.717509 -1.413769,0.674384 -6.753424,2.079282 -9.885285,2.600883 -1.348372,0.224568 -3.111773,0.452838 -4.823666,0.62442 -1.4256,0.142887 -7.366589,0.21345 -8.919953,0.105945 z m 7.197216,-0.840402 c 4.513801,-0.254546 9.209852,-1.090144 13.743869,-2.445533 2.782199,-0.831705 3.100678,-1.023479 3.100678,-1.867093 0,-0.338957 -0.756387,-2.751592 -0.911185,-2.90639 -0.05016,-0.05016 -0.447326,0.09445 -1.171107,0.426434 -2.712609,1.2442 -5.176626,2.054883 -7.94787,2.614917 -2.508075,0.506851 -5.865648,0.738504 -8.613689,0.594295 -2.711564,-0.142294 -4.086056,-0.392839 -6.764762,-1.233091 -0.814936,-0.255628 -1.512644,-0.445653 -1.550464,-0.422279 -0.03782,0.02338 -0.06876,0.002 -0.06876,-0.04752 0,-0.05232 -0.06413,-0.07325 -0.153132,-0.04997 -0.08422,0.02202 -0.153133,0.01167 -0.153133,-0.02301 0,-0.194397 -1.351745,-0.322132 -6.048724,-0.571579 C 11.881302,52.963563 8.0868722,52.699404 6.8383015,52.522325 5.3258531,52.307821 4.4339892,51.879201 3.2618287,50.803509 2.9624271,50.528749 2.6825041,50.303945 2.6397776,50.303945 c -0.051875,0 -0.067912,1.240091 -0.048271,3.732598 0.016177,2.052929 0.034915,3.801508 0.041639,3.885731 0.06335,0.793512 0.68836,1.263341 1.6806132,1.263341 h 0.5286539 l 0.056144,-1.473898 c 0.030879,-0.810644 0.088169,-1.534194 0.1273112,-1.607888 0.083048,-0.156361 0.4674362,-0.181518 0.584942,-0.03828 0.043184,0.05264 0.1036563,0.776189 0.1343833,1.607888 l 0.055867,1.512181 H 6.9679082 8.134756 L 8.1909,57.71172 c 0.030879,-0.810644 0.088169,-1.534194 0.1273112,-1.607888 0.042982,-0.08093 0.160004,-0.133991 0.2954778,-0.133991 0.1354738,0 0.252496,0.05307 0.2954778,0.133991 0.039142,0.07369 0.096432,0.797244 0.1273113,1.607888 l 0.056144,1.473898 h 1.1289559 1.128955 l 0.05614,-1.473898 c 0.03088,-0.810644 0.08817,-1.534194 0.127312,-1.607888 0.08305,-0.156361 0.467436,-0.181518 0.584942,-0.03828 0.04318,0.05264 0.10376,0.778967 0.134613,1.614063 l 0.0561,1.518356 0.895219,-0.02532 c 0.827648,-0.02341 0.919304,-0.04127 1.214305,-0.23672 0.21283,-0.141005 0.486333,-0.465856 0.821321,-0.975518 0.513032,-0.780544 0.729715,-0.993301 1.336079,-1.311874 0.339634,-0.178438 0.376759,-0.181019 2.603248,-0.181019 2.135118,0 2.277765,0.0088 2.607139,0.161222 0.476609,0.220526 0.836013,0.552157 1.493659,1.378233 0.452682,0.568618 0.625508,0.72788 0.906208,0.83508 0.190767,0.07285 0.399831,0.112132 0.464585,0.08728 0.06475,-0.02485 0.117737,-0.01539 0.117737,0.02101 0,0.234249 6.257462,0.394987 9.111369,0.234047 z m 3.025669,-4.520038 c 0.673062,-0.04423 1.559458,-0.130368 1.969766,-0.191415 0.410309,-0.06105 0.76347,-0.110995 0.784803,-0.110995 0.02133,0 0.03879,-0.04887 0.03879,-0.108607 0,-0.06642 -0.200735,-0.173945 -0.516821,-0.27683 -0.810221,-0.263725 -2.454614,-1.078413 -3.283569,-1.626789 -2.735607,-1.809682 -4.79183,-4.365809 -5.973899,-7.426258 -0.481983,-1.247885 -0.828589,-2.87398 -0.987012,-4.630541 -0.02754,-0.305308 -0.07568,-0.555105 -0.106989,-0.555105 -0.03131,0 -0.260381,0.131382 -0.50905,0.291958 -0.94408,0.609636 -1.572558,0.942352 -1.735792,0.918927 -0.222643,-0.03195 -0.353814,-0.386032 -0.208066,-0.561648 0.05732,-0.06907 0.597296,-0.449897 1.199947,-0.84629 0.602651,-0.396394 1.095729,-0.735801 1.095729,-0.754237 0,-0.01844 -0.278148,-0.229538 -0.618106,-0.469113 -0.339958,-0.239576 -0.815343,-0.618198 -1.05641,-0.841384 l -0.438304,-0.405792 -0.91308,0.57095 c -0.502194,0.314022 -0.996876,0.591981 -1.099292,0.617686 -0.257862,0.06472 -0.430492,-0.06637 -0.430492,-0.32689 0,-0.192238 0.0977,-0.286858 0.78564,-0.760889 1.168339,-0.805051 1.11603,-0.668153 0.575154,-1.505244 -0.25353,-0.392379 -0.62504,-1.017774 -0.825577,-1.389766 -0.200537,-0.371993 -0.410491,-0.693955 -0.466566,-0.715473 -0.05607,-0.02152 -0.531364,0.224321 -1.056199,0.546309 -0.524835,0.321988 -1.076007,0.605191 -1.224826,0.629341 -0.237904,0.03861 -0.281625,0.01967 -0.362018,-0.156771 -0.125358,-0.275131 -0.0211,-0.378942 1.209063,-1.203921 0.554522,-0.371875 1.028397,-0.708782 1.053056,-0.748682 0.02466,-0.0399 -0.05573,-0.359888 -0.178633,-0.711086 -0.122907,-0.351198 -0.36809,-1.103681 -0.54485,-1.672184 -0.17676,-0.568504 -0.34786,-1.062276 -0.380223,-1.097271 -0.07592,-0.0821 -0.478437,0.125758 -1.531817,0.791006 -1.410168,0.890573 -1.640089,0.976887 -1.822809,0.684306 -0.196872,-0.315241 -0.100855,-0.399004 2.115366,-1.845432 0.518854,-0.338632 0.963487,-0.668119 0.988075,-0.732193 0.04424,-0.115278 -0.272462,-2.438328 -0.633531,-4.647082 -0.228843,-1.399895 -0.364962,-1.710755 -0.869295,-1.985248 l -0.372776,-0.202889 h -2.102001 -2.102002 l -0.07288,1.523221 c -0.07164,1.497211 -0.07675,1.529442 -0.299469,1.887557 -0.315419,0.507175 -0.683938,0.782154 -1.172357,0.874781 -0.236543,0.04486 -2.885757,0.09911 -6.2968301,0.128937 l -5.8884886,0.0515 v 5.930221 5.930221 l 0.2105569,-0.05326 c 0.1158062,-0.02929 0.8196787,-0.07155 1.564161,-0.09392 1.1952967,-0.03591 1.4438658,-0.02134 2.1253844,0.124581 3.4654054,0.741961 6.1487694,3.25359 7.2035854,6.742559 0.218417,0.722447 0.24725,0.933907 0.284436,2.085989 0.02741,0.849126 0.0092,1.482567 -0.05396,1.87587 -0.140077,0.872465 -0.555185,2.067042 -1.047649,3.014867 -0.238459,0.458954 -0.414298,0.853727 -0.390752,0.877273 0.02355,0.02355 1.622496,0.125403 3.553223,0.226349 6.335738,0.331256 6.610622,0.362406 8.793474,0.996496 2.34281,0.680557 4.517264,1.131249 6.393271,1.325113 0.938226,0.09696 4.199523,0.101116 5.628918,0.0072 z m 6.322983,-1.140367 c 2.579822,-0.759307 5.605909,-1.862747 6.11016,-2.228024 l 0.313809,-0.227322 v -0.60202 c 0,-2.165518 -1.006455,-4.653917 -2.68371,-6.635308 -1.736138,-2.050952 -4.354814,-3.436511 -7.078471,-3.745265 -0.210556,-0.02387 -1.623201,-0.111412 -3.139211,-0.194539 -3.441972,-0.188734 -4.68307,-0.283464 -5.704176,-0.435388 -0.442169,-0.06579 -0.92137,-0.137089 -1.06489,-0.158448 l -0.260946,-0.03884 0.05251,0.864615 c 0.142298,2.342904 0.536888,3.940391 1.427188,5.777935 1.583887,3.269083 4.360465,5.822471 7.758391,7.134752 0.81387,0.314317 2.581361,0.783038 2.967718,0.787009 0.151562,0.0016 0.737293,-0.133065 1.301625,-0.299161 z M 11.900527,51.362486 c 0.828967,-1.347027 1.223984,-2.673023 1.284734,-4.312602 0.04731,-1.276842 -0.07366,-2.108246 -0.466808,-3.208218 -1.017212,-2.846034 -3.5034604,-4.976427 -6.486061,-5.557713 -0.5120072,-0.09979 -3.2323636,-0.05697 -3.5142945,0.05531 l -0.1914154,0.07623 0.023315,4.853157 c 0.027867,5.800607 -0.017623,5.482434 0.9154113,6.402676 1.0732532,1.058539 2.4935967,1.819797 3.7545958,2.012342 0.8656684,0.132181 2.6916084,0.285686 3.5144618,0.295456 l 0.78087,0.0093 z M 51.34262,44.221092 c 3.423366,-0.491172 6.789656,-1.25118 10.027561,-2.263926 1.669567,-0.522203 1.988288,-0.763298 1.988288,-1.504025 0,-0.580091 -0.772192,-3.012306 -0.956361,-3.012306 -0.04488,0 -0.339041,0.123451 -0.653688,0.274335 -2.003452,0.960721 -3.806269,1.635019 -6.12313,2.290203 -3.478229,0.983605 -5.813856,1.319175 -8.613689,1.237569 l -1.607888,-0.04686 0.497679,0.436767 c 0.795332,0.697989 1.770604,1.695962 2.255246,2.30774 l 0.448277,0.565874 0.696382,-0.0462 c 0.383011,-0.02541 1.301606,-0.133035 2.041323,-0.239167 z m -0.822075,-4.103321 c 1.587525,-0.181459 1.826181,-0.223764 1.794723,-0.318139 -0.01339,-0.04017 -0.510424,-0.272231 -1.104525,-0.515701 -1.976563,-0.810025 -3.13848,-1.552833 -4.575465,-2.925077 -1.394798,-1.331956 -2.250507,-2.499353 -3.135545,-4.277647 -0.908761,-1.82596 -1.468118,-3.628702 -1.775111,-5.72097 -0.0755,-0.514573 -0.162299,-0.976074 -0.192882,-1.02556 -0.03813,-0.0617 -0.30466,0.06626 -0.848197,0.407223 -1.076566,0.675334 -1.274377,0.77057 -1.488767,0.716761 -0.232624,-0.05838 -0.32955,-0.390344 -0.162691,-0.557202 0.06493,-0.06493 0.592235,-0.432407 1.171779,-0.816605 0.579544,-0.384199 1.056318,-0.731046 1.059497,-0.770772 0.0032,-0.03973 -0.25263,-0.255099 -0.568465,-0.478608 -0.315835,-0.22351 -0.770053,-0.578623 -1.009373,-0.789141 -0.23932,-0.210518 -0.470689,-0.38276 -0.514155,-0.38276 -0.04346,0 -0.366398,0.185386 -0.717631,0.411969 -1.168904,0.754071 -1.563439,0.878574 -1.695287,0.534982 -0.09749,-0.254049 0.05955,-0.423028 0.917329,-0.987056 0.481396,-0.316541 0.875265,-0.618838 0.875265,-0.671773 0,-0.05294 -0.249797,-0.494667 -0.555104,-0.981627 -0.305308,-0.486959 -0.675696,-1.114528 -0.823086,-1.394596 -0.14739,-0.280068 -0.31131,-0.509505 -0.364267,-0.50986 -0.05296,-3.83e-4 -0.500869,0.252227 -0.99536,0.561296 -1.278247,0.798934 -1.219129,0.773341 -1.444794,0.62548 -0.139693,-0.09153 -0.184529,-0.180283 -0.167139,-0.330848 0.01968,-0.170367 0.210866,-0.330888 1.111424,-0.933141 0.598213,-0.400058 1.110319,-0.751375 1.138013,-0.780703 0.02769,-0.02933 -0.123528,-0.597833 -0.336048,-1.263341 -0.212519,-0.665509 -0.45906,-1.459813 -0.547866,-1.765121 -0.08881,-0.305307 -0.203977,-0.555104 -0.255932,-0.555104 -0.05196,0 -0.711291,0.379002 -1.465189,0.842227 -0.753898,0.463225 -1.443817,0.842228 -1.533152,0.842228 -0.211456,0 -0.346187,-0.139866 -0.346187,-0.359381 0,-0.209351 0.18581,-0.351355 1.866078,-1.42615 0.668396,-0.427543 1.233197,-0.824084 1.255115,-0.8812 0.02192,-0.05712 -0.08478,-0.953408 -0.237107,-1.99176 C 34.698116,10.611742 34.519254,9.3538462 34.452972,8.8547704 34.304449,7.7364574 34.185881,7.4299712 33.755065,7.0507525 L 33.41755,6.7536601 31.256339,6.7228392 c -1.188666,-0.016951 -2.170549,-0.025534 -2.181962,-0.019072 -0.01141,0.00646 -0.03986,0.576657 -0.06322,1.2671 -0.05843,1.7273239 -0.111049,1.9615781 -0.550376,2.4502148 -0.611913,0.680595 -0.106113,0.630983 -7.02227,0.688791 -3.368909,0.02816 -6.133904,0.05515 -6.144431,0.05999 -0.01053,0.0048 -0.01914,2.058849 -0.01914,4.564476 v 4.555684 l 0.287123,0.0065 c 0.157918,0.0036 1.406903,0.03172 2.775522,0.06256 2.787589,0.06282 2.795353,0.06425 3.409023,0.629914 0.60092,0.55391 0.727996,0.916298 0.916314,2.613089 0.110457,0.995242 0.11474,1.009416 0.362478,1.199463 1.086658,0.833603 2.055626,2.029429 2.70356,3.33652 1.059094,2.136536 1.263551,4.07794 0.688991,6.542232 l -0.18647,0.799773 0.436121,0.496749 c 0.676785,0.770868 1.592685,1.515046 2.274391,1.847964 0.687598,0.335797 1.763145,0.640912 2.679815,0.760222 0.838567,0.109143 3.827579,0.356901 6.048724,0.501375 2.721388,0.177014 3.482996,0.298605 5.089392,0.812532 0.958893,0.306772 1.45711,0.349868 4.163509,0.360136 1.815366,0.0069 2.555158,-0.02216 3.59711,-0.141263 z m 5.589292,-1.072307 c 2.377063,-0.594222 4.117277,-1.273816 5.681996,-2.218951 l 0.643836,-0.388896 -0.0398,-0.35976 c -0.186575,-1.68637 -0.351404,-2.418848 -0.807258,-3.587352 -0.552375,-1.415915 -1.3828,-2.632705 -2.608023,-3.82144 -1.422689,-1.38032 -2.996815,-2.283622 -4.803326,-2.756358 -0.937067,-0.245217 -1.541841,-0.305403 -4.945241,-0.492137 -3.269417,-0.179384 -5.197603,-0.342479 -6.002569,-0.507728 -0.466831,-0.09583 -0.577644,-0.09849 -0.630499,-0.01514 -0.120483,0.19002 -0.06844,1.499622 0.09287,2.336806 0.367262,1.906077 1.39653,4.40589 2.485172,6.035803 1.797296,2.690912 4.205604,4.558257 7.102716,5.507281 0.807568,0.26454 2.059259,0.561149 2.413653,0.571955 0.09806,0.003 0.735469,-0.133849 1.416473,-0.304088 z M 25.743901,34.014501 c 0.03239,-0.115806 0.05607,-0.934106 0.05263,-1.818445 -0.0059,-1.52288 -0.01731,-1.644321 -0.215452,-2.296984 -0.386284,-1.272387 -1.009779,-2.375642 -1.979633,-3.5029 -0.376794,-0.437946 -0.593327,-0.553228 -0.593327,-0.315884 0,0.20046 0.371992,1.98304 0.613164,2.938274 0.261412,1.035399 0.861162,2.821155 1.348342,4.014694 0.498732,1.221838 0.652496,1.416704 0.774274,0.981245 z m -10.85179,-9.417752 c 0.470846,-0.235214 0.535709,-0.480807 0.535845,-2.028883 l 1.18e-4,-1.359049 H 9.5474728 3.6668713 l -0.3559656,0.225747 c -0.5969207,0.378556 -0.69614,0.661957 -0.7318435,2.090378 l -0.030142,1.205917 6.0376049,-1.54e-4 c 5.5946909,-7.6e-5 6.0572639,-0.0099 6.3055859,-0.13399 z M 27.561179,10.151043 c 0.477495,-0.1995099 0.537369,-0.4347171 0.610608,-2.3987228 l 0.03783,-1.0145011 h -5.881049 -5.88105 l -0.337449,0.178152 c -0.185596,0.097983 -0.440812,0.324767 -0.567146,0.5039633 -0.229575,0.3256358 -0.229712,0.3264889 -0.253993,1.5828689 l -0.0243,1.2570577 h 6.018053 c 5.027914,0 6.060902,-0.0179 6.27849,-0.108818 z" id="path1662"></path>
    <path d="m 17.729839,45.447756 c -0.127727,-0.153901 -0.127727,-3.685926 0,-3.839828 0.0498,-0.06 0.190534,-0.109088 0.312754,-0.109088 0.168086,0 0.240408,0.04784 0.296889,0.1964 0.09725,0.255773 0.09725,3.409432 0,3.665205 -0.05648,0.148557 -0.128803,0.1964 -0.296889,0.1964 -0.12222,0 -0.262959,-0.04909 -0.312754,-0.109089 z" id="path1701"></path>
    <path d="m 20.984587,45.436527 c -0.09217,-0.09217 -0.12253,-0.302631 -0.129774,-0.899652 -0.01783,-1.469306 0.0255,-2.770112 0.09672,-2.904044 0.100542,-0.189063 0.496923,-0.176879 0.60148,0.01849 0.116794,0.218231 0.110745,3.65766 -0.0067,3.79915 -0.118051,0.142242 -0.412879,0.134925 -0.561746,-0.01394 z" id="path1740"></path>
    <path d="m 24.23796,45.447756 c -0.127727,-0.153901 -0.127727,-3.685926 0,-3.839828 0.129311,-0.15581 0.510311,-0.138019 0.599149,0.02798 0.0719,0.134338 0.10379,1.120007 0.09139,2.824402 -0.0049,0.669933 -0.03237,0.882043 -0.126544,0.976219 -0.14999,0.149989 -0.443978,0.155843 -0.563996,0.01123 z" id="path1779"></path>
    <path d="" id="path1818"></path>
    <path d="M 31.407433,54.546059 C 29.515905,54.358682 27.544109,53.977184 25.802784,53.461685 23.08026,52.655712 22.481453,52.553435 19.639211,52.408936 15.037975,52.17501 12.709148,52.047327 12.687636,52.0278 c -0.01229,-0.01115 0.10092,-0.230591 0.251572,-0.48764 1.578721,-2.693677 1.686526,-6.155885 0.280478,-9.007677 C 11.948466,39.954153 9.8013302,38.221128 6.9357496,37.460508 6.2916436,37.289541 6.0379266,37.264712 4.861949,37.257564 4.125,37.253085 3.3411543,37.278495 3.1200696,37.31403 l -0.4019721,0.06461 v -5.82621 -5.826211 l 6.0295824,-0.0017 c 5.8922201,-0.0016 6.0373821,-0.0052 6.3719521,-0.156984 0.552278,-0.250518 0.816266,-0.498037 1.067593,-1.000987 l 0.236209,-0.472695 V 22.686146 21.27844 l 2.099157,0.0226 2.099156,0.0226 0.324999,0.229698 c 0.534796,0.377976 0.581036,0.536279 0.988752,3.38501 0.203654,1.422931 0.381873,2.702053 0.396045,2.842492 0.02569,0.254609 0.02126,0.25825 -1.538269,1.263341 -1.723408,1.110712 -1.853905,1.248759 -1.55749,1.647602 0.290293,0.390606 0.483393,0.331425 1.943854,-0.595747 0.731942,-0.464671 1.360041,-0.854134 1.395777,-0.865471 0.03574,-0.01134 0.19576,0.434869 0.35561,0.991571 0.15985,0.556702 0.397976,1.308834 0.529169,1.671403 0.131193,0.362569 0.223563,0.683439 0.205267,0.713042 -0.0183,0.0296 -0.522281,0.362594 -1.119966,0.739979 -0.704937,0.445106 -1.11112,0.750385 -1.156214,0.868993 -0.134988,0.355045 0.105147,0.698574 0.488323,0.698574 0.165639,0 0.542844,-0.194559 1.256031,-0.64785 l 1.019296,-0.64785 0.385849,0.751169 c 0.212218,0.413143 0.574821,1.031856 0.805785,1.374916 0.230965,0.343061 0.419936,0.637572 0.419936,0.65447 0,0.0169 -0.335934,0.24608 -0.746519,0.509295 -0.410586,0.263214 -0.824043,0.548401 -0.918794,0.633747 -0.345417,0.311136 -0.116491,0.894145 0.351097,0.894145 0.139297,0 0.538993,-0.205804 1.11525,-0.574246 0.493979,-0.315835 0.916886,-0.574246 0.939793,-0.574246 0.02291,0 0.22954,0.171723 0.459187,0.381608 0.229647,0.209884 0.67047,0.547654 0.979607,0.7506 l 0.562068,0.368992 -0.966266,0.608449 c -1.24573,0.784424 -1.392592,0.909869 -1.392592,1.189501 0,0.281102 0.242666,0.529314 0.516821,0.528634 0.131006,-3.06e-4 0.57215,-0.230148 1.167634,-0.608304 l 0.957076,-0.60778 0.08966,0.984964 c 0.178085,1.956432 0.658328,3.71277 1.476508,5.399856 1.725191,3.557345 4.714441,6.28724 8.412554,7.682656 l 0.786129,0.296633 -0.941588,0.124968 c -2.272813,0.30165 -5.121389,0.363953 -7.20469,0.157579 z M 18.408596,45.508236 c 0.150063,-0.190774 0.158689,-0.297182 0.158689,-1.95747 0,-1.719995 -0.03334,-1.994914 -0.260301,-2.146461 -0.150114,-0.100234 -0.52792,-0.06191 -0.671605,0.06812 -0.12854,0.116327 -0.140019,0.283746 -0.140019,2.042115 0,1.674852 0.01591,1.932983 0.126716,2.055418 0.19389,0.214247 0.594151,0.182837 0.78652,-0.06172 z m 3.255276,0.03157 c 0.183715,-0.262289 0.177055,-3.850121 -0.0075,-4.054081 -0.171441,-0.18944 -0.596561,-0.182402 -0.792077,0.01311 -0.144799,0.144799 -0.153132,0.25522 -0.153132,2.029002 0,1.773783 0.0083,1.884204 0.153132,2.029003 0.214568,0.214567 0.643787,0.205422 0.799603,-0.01704 z m 3.214535,0.04997 c 0.192633,-0.192633 0.206486,-0.363386 0.181978,-2.242978 -0.02168,-1.662795 -0.03336,-1.791338 -0.171887,-1.892527 -0.200278,-0.146291 -0.573333,-0.1372 -0.744998,0.01816 -0.12854,0.116327 -0.14002,0.283746 -0.14002,2.042115 0,1.674852 0.01591,1.932983 0.126717,2.055418 0.156568,0.173007 0.583708,0.18432 0.74821,0.01982 z" id="path1857"></path>
    <path d="m 41.269142,53.593027 c -2.606,-0.545335 -4.995706,-1.800102 -6.911065,-3.628805 -0.931576,-0.889428 -1.494898,-1.559898 -2.159113,-2.56979 -1.064136,-1.617946 -1.810136,-3.50318 -2.148262,-5.428922 -0.07899,-0.449891 -0.239165,-2.548509 -0.197675,-2.589998 0.0098,-0.0098 0.136214,0.01636 0.280815,0.05824 0.770795,0.223235 3.768543,0.459294 8.26407,0.650759 1.479919,0.06303 2.459303,0.221547 3.524176,0.570401 1.76497,0.578207 3.038127,1.359754 4.367851,2.681271 1.951875,1.939831 3.09675,4.358372 3.264148,6.895495 l 0.04322,0.65511 -0.315261,0.269851 c -0.218372,0.186918 -0.651002,0.395248 -1.407704,0.67787 -2.00981,0.750647 -4.671,1.611137 -5.801259,1.875825 -0.06317,0.01479 -0.424942,-0.038 -0.803944,-0.117305 z" id="path1896"></path>
    <path d="m 2.6563453,23.524942 c 0.036433,-1.218611 0.089089,-1.409515 0.4951718,-1.795242 0.484114,-0.459847 0.2571566,-0.444317 6.4933555,-0.444317 h 5.7066354 l -3.06e-4,1.282483 c -3.06e-4,1.433862 -0.05664,1.630389 -0.554118,1.933708 -0.24335,0.148372 -0.397447,0.152153 -6.2120314,0.152432 l -5.9624715,2.86e-4 z" id="path1935"></path>
    <path d="M 9.9153133,51.831482 C 9.5573666,51.799031 8.8057904,51.735303 8.2451439,51.689863 6.9882561,51.587993 6.4725593,51.460556 5.5893272,51.03357 4.8279239,50.665481 4.1298851,50.165583 3.4730998,49.518044 3.1282455,49.178044 3.0049399,48.986956 2.8605708,48.568797 L 2.6798144,48.045244 V 43.260882 38.47652 l 0.5359629,-0.101799 c 0.7930356,-0.150628 2.7270491,-0.07565 3.5101346,0.136078 4.8321561,1.30651 7.5419571,6.364091 5.9109881,11.032284 -0.215763,0.61756 -0.766462,1.688904 -1.078288,2.097729 -0.231951,0.304104 -0.302169,0.312251 -1.6432987,0.19067 z" id="path1974"></path>
    <path d="m 27.525522,59.108715 c -2.142217,-0.118213 -2.956169,-0.210881 -3.269204,-0.372192 -0.323728,-0.166821 -0.62601,-0.470875 -1.037866,-1.043947 -0.413784,-0.575756 -0.81071,-0.925519 -1.32054,-1.163632 l -0.459397,-0.214559 h -2.258701 -2.2587 l -0.459397,0.225216 c -0.564668,0.276825 -1.005965,0.734766 -1.477436,1.533159 -0.311508,0.52751 -0.415623,0.638679 -0.770866,0.823086 -0.363918,0.18891 -0.492598,0.213203 -1.129351,0.213203 h -0.718635 v -1.519456 c 0,-1.374785 -0.01333,-1.53152 -0.140019,-1.646171 -0.171658,-0.155348 -0.54471,-0.164448 -0.744999,-0.01817 -0.137117,0.100139 -0.150452,0.227598 -0.172229,1.646172 l -0.0236,1.537628 H 10.217115 9.149652 v -1.421507 c 0,-1.698393 -0.052456,-1.867046 -0.5815206,-1.869664 -0.4597184,-0.0023 -0.4904051,0.109422 -0.4904051,1.785019 v 1.506152 H 6.9675174 5.8573086 v -1.476003 c 0,-1.211978 -0.021321,-1.506442 -0.1191908,-1.646172 -0.155816,-0.222458 -0.5850355,-0.231603 -0.7996027,-0.01704 -0.14272,0.14272 -0.1531322,0.25522 -0.1531322,1.65454 v 1.501408 l -0.561982,-0.02838 C 3.7867657,59.075358 3.6016411,59.028068 3.3934105,58.885386 3.0416694,58.644369 2.7887372,58.265808 2.7110014,57.864031 2.6764609,57.685508 2.6466999,55.942926 2.6448659,53.991626 l -0.00333,-3.547817 0.6057513,0.561738 c 0.9461365,0.877392 1.759287,1.297596 3.0271805,1.564328 0.9653218,0.203079 7.0787703,0.623526 12.6756533,0.871757 3.320349,0.147264 4.196729,0.280836 5.82293,0.887493 1.600141,0.596935 3.468135,1.033072 5.393625,1.259297 1.957158,0.229946 5.631421,0.212509 7.810127,-0.03706 3.772724,-0.432171 7.60139,-1.52222 10.846556,-3.088093 l 0.905577,-0.436963 0.220255,0.61272 c 0.66785,1.857869 0.72606,2.06253 0.670153,2.356236 -0.1061,0.557389 -0.39723,0.772741 -1.562926,1.156112 -4.638765,1.525584 -9.128195,2.438855 -13.989127,2.845766 -1.663885,0.139285 -5.903142,0.202005 -7.541764,0.11158 z" id="path2013"></path>
    <path d="m 44.331787,40.111431 c -0.5583,-0.04903 -1.011935,-0.137903 -1.345638,-0.263638 -1.430274,-0.538909 -2.327214,-0.695233 -4.817935,-0.8397 -2.472675,-0.14342 -6.161864,-0.465152 -6.990299,-0.609618 -1.770064,-0.308674 -3.035503,-0.977283 -4.073507,-2.152286 -0.806705,-0.913177 -0.75109,-0.744648 -0.531165,-1.609577 0.478751,-1.882845 0.343405,-4.054189 -0.364503,-5.847749 -0.613963,-1.555539 -1.573614,-2.843841 -3.022791,-4.058004 L 22.866097,24.462877 22.750639,23.28394 c -0.100832,-1.029599 -0.14538,-1.23972 -0.351675,-1.658763 -0.273215,-0.554979 -0.626368,-0.893528 -1.224936,-1.17428 L 20.74942,20.25174 18.050464,20.228949 15.351508,20.206158 V 15.730689 11.25522 l 6.067866,-0.0017 c 5.936466,-0.0016 6.075326,-0.0051 6.412413,-0.157464 0.447513,-0.202318 0.806477,-0.551053 1.057773,-1.02761 C 29.083075,9.7014652 29.092599,9.6261765 29.119594,8.25 l 0.02816,-1.4356148 h 1.947723 c 2.107422,0 2.30074,0.030634 2.718507,0.4307814 0.335172,0.321035 0.436549,0.6919332 0.602756,2.2052408 0.08754,0.7970856 0.246522,1.9513206 0.353282,2.5649656 0.10676,0.613644 0.210765,1.219082 0.231122,1.345416 0.03614,0.224299 0.0042,0.250397 -1.358454,1.110209 -0.767507,0.48428 -1.493118,0.961096 -1.612467,1.05959 -0.246974,0.203817 -0.284352,0.494631 -0.09781,0.76096 0.236495,0.337644 0.510009,0.240707 1.992508,-0.706167 l 1.37206,-0.876337 0.09763,0.359516 c 0.0537,0.197732 0.295773,0.973101 0.53795,1.723042 l 0.440321,1.363527 -0.966681,0.607108 c -0.531675,0.333909 -1.058003,0.678942 -1.16962,0.76674 -0.395609,0.311186 -0.184436,0.940852 0.314871,0.938868 0.130935,-5.36e-4 0.592701,-0.245201 1.230675,-0.65211 l 1.021106,-0.651276 0.385225,0.735056 c 0.211874,0.404281 0.5837,1.030109 0.826279,1.390729 l 0.441054,0.655673 -0.872802,0.558331 c -0.480041,0.307082 -0.909451,0.62681 -0.954244,0.710507 -0.09658,0.180453 -0.039,0.46266 0.128578,0.630239 0.232807,0.232807 0.52956,0.140064 1.482223,-0.463234 l 0.921302,-0.583438 0.556467,0.474012 c 0.306056,0.260706 0.755943,0.597901 0.999749,0.749321 0.243805,0.151421 0.413608,0.295413 0.377338,0.319983 -0.03627,0.02457 -0.521891,0.334416 -1.079159,0.688546 -0.557267,0.35413 -1.063003,0.714958 -1.123857,0.801839 -0.154123,0.220042 -0.138031,0.448453 0.04547,0.645419 0.263571,0.282911 0.51085,0.212817 1.533871,-0.434795 0.598253,-0.378718 0.969043,-0.570605 0.998671,-0.516821 0.02592,0.04705 0.06898,0.305857 0.09569,0.575131 0.09,0.907389 0.497978,2.721859 0.854325,3.799613 0.863395,2.611302 2.221724,4.788878 4.106462,6.583189 1.405794,1.338345 2.99752,2.330033 4.806271,2.994437 l 0.798505,0.293312 -0.300825,0.06266 c -1.360533,0.283397 -5.630213,0.44128 -7.49804,0.277261 z" id="path2052"></path>
    <path d="m 15.365207,9.0536975 c 0.02451,-1.2278293 0.02525,-1.2323385 0.254283,-1.5562621 0.126334,-0.1786757 0.367517,-0.3968429 0.535963,-0.484816 0.301699,-0.1575672 0.3928,-0.1602575 6.112494,-0.1805055 l 5.80623,-0.020554 -0.02549,1.3359222 c -0.0232,1.2160617 -0.03994,1.3552979 -0.186624,1.5518769 -0.382266,0.512314 -0.0047,0.481508 -6.572389,0.536198 l -5.949053,0.04954 z" id="path2091"></path>
    <path d="m 25.283809,33.405883 c -0.745792,-1.597708 -1.464275,-3.831818 -1.888795,-5.873179 -0.128569,-0.618239 -0.233761,-1.180696 -0.233761,-1.249905 0,-0.335693 1.164108,1.128367 1.657792,2.084951 0.737997,1.429975 0.977468,2.512963 0.93117,4.211136 -0.04097,1.502659 -0.101179,1.609421 -0.466406,0.826997 z" id="path2130"></path>
    <path d="m 53.880005,39.080356 c -3.611635,-0.744254 -6.535384,-2.762231 -8.666627,-5.981727 -1.293554,-1.954067 -2.286811,-4.578756 -2.532509,-6.692177 -0.08756,-0.753205 -0.04864,-1.445895 0.08125,-1.445895 0.03692,0 0.284604,0.04924 0.550413,0.109433 0.534374,0.121001 2.75892,0.30296 5.23039,0.427824 3.544266,0.179064 4.188013,0.228594 4.926142,0.379015 3.305654,0.67365 6.131755,2.840088 7.653144,5.866763 0.596856,1.187394 1.007945,2.650901 1.127166,4.012789 l 0.05027,0.574246 -0.523373,0.342962 c -1.488888,0.975659 -3.472693,1.749897 -5.969359,2.329719 l -1.081719,0.251217 z" id="path2169"></path>
    <path d="m 48.283259,43.876393 c -0.550625,-0.740479 -1.424452,-1.649384 -2.063202,-2.146026 -0.296592,-0.230607 -0.527698,-0.430846 -0.513569,-0.444976 0.01413,-0.01413 0.45138,0.01427 0.971666,0.06311 3.692214,0.346598 10.006213,-1.075858 14.709426,-3.313828 0.537299,-0.255668 0.989099,-0.450804 1.004,-0.433637 0.117271,0.135105 0.891641,2.544312 0.891062,2.772255 -8.2e-4,0.321521 -0.135976,0.633497 -0.363763,0.839642 -0.379215,0.343185 -4.804452,1.620421 -7.74556,2.235567 -1.725281,0.36085 -5.674535,0.959852 -6.328357,0.959852 -0.11657,0 -0.284148,-0.158704 -0.561703,-0.531959 z" id="path2208"></path>
  </symbol>

  <symbol version="1.1" id="shopping-cart" sodipodiDocname="shopping-cart.svg" inkscapeVersion="1.1 (c68e22c387, 2021-05-23)" xmlnsInkscape="http://www.inkscape.org/namespaces/inkscape" xmlnsSodipodi="http://sodipodi.sourceforge.net/DTD/sodipodi-0.dtd" xmlns="http://www.w3.org/2000/svg" xmlnsSvg="http://www.w3.org/2000/svg" viewBox="0 0 1792 1792">
    <defs id="defs8"></defs>
    <sodipodi:namedview id="namedview6" pagecolor="#ffffff" bordercolor="#666666" borderopacity="1.0" inkscapePageshadow="2" inkscapePageopacity="0.0" inkscapePagecheckerboard="0" showgrid="false" inkscapeZoom="0.48102679" inkscapeCx="899.11832" inkscapeCy="888.72389" inkscapeWindowWidth="1842" inkscapeWindowHeight="1051" inkscapeWindowX="69" inkscapeWindowY="-9" inkscapeWindowMaximized="1" inkscapeCurrentLayer="svg4"></sodipodi:namedview>
    <path d="M704 1536q0 52-38 90t-90 38-90-38-38-90 38-90 90-38 90 38 38 90zm896 0q0 52-38 90t-90 38-90-38-38-90 38-90 90-38 90 38 38 90zm128-1088v512q0 24-16.5 42.5t-40.5 21.5l-1044 122q13 60 13 70 0 16-24 64h920q26 0 45 19t19 45-19 45-45 19h-1024q-26 0-45-19t-19-45q0-11 8-31.5t16-36 21.5-40 15.5-29.5l-177-823h-204q-26 0-45-19t-19-45 19-45 45-19h256q16 0 28.5 6.5t19.5 15.5 13 24.5 8 26 5.5 29.5 4.5 26h1201q26 0 45 19t19 45z" id="path2"></path>
    <path d="m 495.5886,1404.5537 c -25.47174,-6.892 -45.36999,-32.5697 -45.46406,-58.6691 -0.0721,-19.9976 10.26458,-45.3526 43.64462,-107.0566 l 16.62853,-30.7383 -88.75204,-412.71919 -88.75205,-412.71916 -111.35631,-0.58786 -111.35632,-0.58785 -8.92152,-4.76375 c -11.414753,-6.09504 -23.902952,-18.59364 -29.946395,-29.97134 -3.852576,-7.25306 -4.743471,-12.22619 -4.76375,-26.59206 -0.02216,-15.70037 0.657985,-18.90336 6.100293,-28.72782 7.397839,-13.35459 17.067878,-22.1957 31.506962,-28.80613 l 10.79641,-4.94276 144.17549,0.57478 c 143.58121,0.57242 144.21035,0.59345 152.63283,5.10173 9.46234,5.06489 21.75114,17.77049 26.99455,27.91011 6.91259,13.36747 11.7952,30.5399 17.37612,61.11283 l 5.69234,31.18329 608.9579,1.03945 608.9579,1.03944 10.6182,5.60194 c 5.8399,3.08107 14.8951,10.35903 20.1226,16.17324 17.3448,19.29157 16.1646,-3.52606 15.5451,300.56117 l -0.5504,270.14625 -4.7637,8.92152 c -6.0263,11.28598 -18.6616,23.98917 -29.2172,29.37427 -4.4921,2.2917 -14.1198,5.0967 -21.3949,6.2334 -7.2751,1.1367 -242.8924,28.8093 -523.594,61.4947 -280.70162,32.6853 -512.57135,59.898 -515.26605,60.4725 -4.02073,0.8572 -4.72133,2.0528 -3.90631,6.6662 0.54625,3.0919 3.53783,19.0551 6.64799,35.4739 6.62589,34.9787 6.45097,36.3412 -9.15668,71.3186 l -10.03021,22.4782 468.02736,0.5421 468.0273,0.542 10.3402,5.0883 c 40.5864,19.972 49.8604,69.9242 18.7596,101.0438 -4.6307,4.6335 -13.0725,10.7142 -18.7596,13.5128 l -10.3402,5.0883 -522.8399,0.3897 c -412.08198,0.3072 -524.8695,-0.1594 -532.4207,-2.2026 z" id="path1677"></path>
    <path d="m 548.82599,1659.6566 c -22.93045,-4.906 -41.00989,-15.4813 -61.47953,-35.9613 -27.20467,-27.2185 -37.19713,-50.6901 -37.2429,-87.4813 -0.0396,-31.8192 7.4044,-53.1142 27.36798,-78.2913 30.02199,-37.8623 78.31348,-55.7308 124.78344,-46.1716 43.10795,8.8676 83.32655,47.3915 96.38456,92.3231 5.14272,17.6958 4.70894,49.7502 -0.91434,67.5639 -16.59879,52.5822 -69.01032,91.8307 -121.87369,91.2654 -6.86033,-0.073 -19.02181,-1.5345 -27.02552,-3.2469 z" id="path1716"></path>
    <path d="m 1444.826,1659.6566 c -22.9305,-4.906 -41.0099,-15.4813 -61.4795,-35.9613 -27.2047,-27.2185 -37.1972,-50.6901 -37.2429,-87.4813 -0.04,-31.8192 7.4044,-53.1142 27.3679,-78.2913 30.022,-37.8623 78.3135,-55.7308 124.7835,-46.1716 43.1079,8.8676 83.3265,47.3915 96.3845,92.3231 5.1428,17.6958 4.709,49.7502 -0.9143,67.5639 -16.5988,52.5822 -69.0103,91.8307 -121.8737,91.2654 -6.8603,-0.073 -19.0218,-1.5345 -27.0255,-3.2469 z" id="path1755"></path>
    <path d="m 498.93271,1403.3806 c -25.78962,-4.4231 -46.72403,-30.0863 -46.74303,-57.3017 -0.004,-6.8603 1.02884,-16.2153 2.29699,-20.7889 3.58291,-12.9217 17.38782,-42.4788 37.50001,-80.2896 10.10896,-19.0048 18.38163,-36.3116 18.38376,-38.4594 0.006,-5.5995 -175.10489,-819.35123 -176.96192,-822.35595 -1.16266,-1.88122 -29.01412,-2.70484 -112.38662,-3.32347 l -110.84093,-0.82246 -8.31554,-4.78939 C 90.607019,368.76539 76.721253,354.38364 71.69584,344.00252 65.990826,332.21753 65.976408,308.0997 71.667371,296.37793 78.518287,282.26699 87.439035,273.32172 102.2777,265.68346 l 14.13993,-7.27858 144.82633,1.24768 144.82634,1.24767 8.98457,6.31677 c 20.78196,14.61113 30.49662,35.70669 40.29243,87.49576 l 5.54234,29.30155 609.42116,1.55005 c 586.7752,1.49246 609.7007,1.69272 616.9465,5.38923 12.0314,6.13796 30.5414,24.28223 33.4397,32.77905 2.0225,5.92892 2.7433,68.69773 3.2241,280.73836 l 0.6192,273.10207 -5.1151,8.58702 c -9.0691,15.22511 -23.3569,27.84251 -36.5667,32.29191 -8.3377,2.8083 -62.2849,9.305 -554.0232,66.7192 -439.20298,51.2803 -496.16242,58.0346 -499.45247,59.2247 -3.65023,1.3204 -3.32081,5.9213 2.80947,39.2405 3.47313,18.877 4.96405,32.6345 4.16702,38.4516 -0.68256,4.9818 -5.94836,19.8462 -11.70176,33.0319 -5.7534,13.1857 -9.88947,24.5454 -9.19127,25.2438 0.69819,0.6983 211.40935,1.5883 468.24701,1.9777 l 466.9776,0.7079 10.0249,5.08 c 13.0107,6.5931 25.8021,19.5103 31.3448,31.6534 6.3029,13.8086 6.1746,35.3943 -0.2885,48.5296 -6.1074,12.4126 -19.2298,25.5654 -31.9236,31.9979 l -9.9005,5.0169 -521.3499,-0.2602 c -286.74241,-0.1431 -525.09184,-0.9019 -529.66539,-1.6863 z" id="path1942"></path>
    <path d="m 498.93271,1403.3806 c -25.78962,-4.4231 -46.72403,-30.0863 -46.74303,-57.3017 -0.004,-6.8603 1.02884,-16.2153 2.29699,-20.7889 3.65545,-13.1833 17.52956,-42.9041 37.46034,-80.2466 10.13077,-18.9811 18.41702,-36.2879 18.4139,-38.4594 -0.008,-6.1387 -175.76025,-821.7436 -177.43517,-823.41851 -0.81667,-0.81667 -51.26833,-1.85419 -112.11481,-2.30561 l -110.62996,-0.82076 -8.31554,-4.78939 C 90.607019,368.76539 76.721253,354.38364 71.69584,344.00252 65.990826,332.21753 65.976408,308.0997 71.667371,296.37793 78.515485,282.27277 87.436222,273.3238 102.2777,265.67075 l 14.13993,-7.29129 144.82626,1.26039 144.82626,1.26038 8.98466,6.31677 c 20.78198,14.61104 30.49666,35.70661 40.29249,87.49576 l 5.54234,29.30155 609.42116,1.55005 c 586.7752,1.49246 609.7007,1.69272 616.9465,5.38923 12.0314,6.13796 30.5414,24.28223 33.4397,32.77905 2.0225,5.92892 2.7433,68.69773 3.2241,280.73836 l 0.6192,273.10207 -5.1151,8.58702 c -9.0691,15.22511 -23.3569,27.84251 -36.5667,32.29191 -8.3377,2.8083 -62.2849,9.305 -554.0232,66.7192 -439.20298,51.2803 -496.16242,58.0346 -499.45247,59.2247 -3.65023,1.3204 -3.32081,5.9213 2.80947,39.2405 3.45076,18.7555 4.96218,32.6482 4.17607,38.3857 -0.67762,4.9456 -5.90915,19.8442 -11.62563,33.1081 -5.71651,13.2638 -9.85665,24.6532 -9.20032,25.3096 0.65632,0.6565 211.33322,1.5122 468.17088,1.9016 l 466.9776,0.7079 10.0249,5.08 c 13.0107,6.5931 25.8021,19.5103 31.3448,31.6534 6.0146,13.177 6.0651,35.1733 0.1104,48.1245 -5.4269,11.8031 -19.488,25.8993 -32.3225,32.403 l -9.9005,5.0169 -521.3499,-0.2602 c -286.74241,-0.1431 -525.09184,-0.9019 -529.66539,-1.6863 z" id="path1981"></path>
    <path d="m 498.93271,1403.3805 c -17.6564,-3.0281 -33.49398,-16.1926 -42.1026,-34.9962 -4.47763,-9.7805 -5.05361,-13.473 -4.24372,-27.2054 1.15216,-19.5355 9.64897,-40.4652 38.23819,-94.1898 10.74809,-20.1978 19.542,-38.2286 19.542,-40.0684 0,-3.5513 -17.57725,-85.9591 -102.90006,-482.42883 C 342.5999,423.07599 334.11667,384.35641 332.61601,382.85575 331.96968,382.20944 281.65741,381.28936 220.81093,380.81112 95.693269,379.82774 104.16684,380.97843 85.493835,362.43554 71.617438,348.65584 67.665759,339.34241 67.609461,320.28512 67.53512,295.12031 78.419854,277.97311 102.2777,265.67075 l 14.13993,-7.29129 144.4826,1.26038 c 143.86721,1.25502 144.51359,1.27973 151.7587,5.80074 23.12511,14.43027 33.90776,38.24217 44.6461,98.59438 l 3.55487,19.97927 609.436,1.55009 c 586.7896,1.49249 609.7156,1.69275 616.9614,5.38926 12.0313,6.13796 30.5413,24.28224 33.4397,32.77906 2.0224,5.92873 2.7433,68.64434 3.2239,280.47117 0.6109,269.21187 0.564,272.93869 -3.5279,280.64965 -8.013,15.10001 -23.3216,28.80574 -37.5345,33.60434 -8.0731,2.7257 -80.2218,11.4159 -562.3388,67.7329 -419.05551,48.9507 -487.93194,57.1179 -491.13687,58.2374 -3.63149,1.2686 -3.33236,5.3893 2.82343,38.894 3.49971,19.0482 4.97948,32.74 4.17378,38.6182 -0.68655,5.009 -5.8784,20.0213 -11.53746,33.3607 l -10.28918,24.2535 55.48897,1.2848 c 30.51892,0.7067 241.05452,1.4083 467.85683,1.5592 l 412.368,0.2743 12.5567,6.6927 c 46.6297,24.8534 44.9724,86.6476 -2.9755,110.9447 l -9.9004,5.0169 -521.3499,-0.2602 c -286.74241,-0.1431 -525.09184,-0.9019 -529.66539,-1.6864 z" id="path1641"></path>
    <path d="m 546.13551,1657.7941 c -40.7944,-10.9804 -80.6437,-50.0107 -91.14764,-89.2744 -3.65671,-13.6688 -3.56758,-51.0951 0.15499,-65.0799 10.95124,-41.141 50.57158,-79.347 92.64368,-89.3367 47.87694,-11.3679 95.92408,6.2544 126.276,46.3145 30.26736,39.9485 35.56372,85.6382 14.82057,127.8515 -15.93084,32.4201 -50.15571,60.759 -84.03592,69.5837 -15.0692,3.925 -44.01883,3.8961 -58.71168,-0.059 z" id="path1680"></path>
    <path d="m 1442.1355,1657.7941 c -40.7944,-10.9804 -80.6437,-50.0107 -91.1476,-89.2744 -3.6568,-13.6688 -3.5676,-51.0951 0.1549,-65.0799 10.9513,-41.141 50.5716,-79.347 92.6437,-89.3367 47.877,-11.3679 95.9241,6.2544 126.276,46.3145 30.2674,39.9485 35.5637,85.6382 14.8206,127.8515 -15.9308,32.4201 -50.1557,60.759 -84.0359,69.5837 -15.0692,3.925 -44.0188,3.8961 -58.7117,-0.059 z" id="path1719"></path>
    <path d="m 953.16937,1403.2597 c -450.16707,-1.032 -458.54207,-1.1241 -466.62065,-5.13 -19.73511,-9.7862 -32.31207,-30.0969 -32.31207,-52.1813 0,-18.0596 6.3188,-36.4799 25.98099,-75.7387 8.59252,-17.1564 14.91528,-31.2078 14.05059,-31.2253 -0.86469,-0.017 -0.50349,-0.7191 0.8027,-1.5592 3.98805,-2.5648 15.29565,-26.6334 15.29565,-32.5574 0,-5.6127 -5.45743,-32.825 -7.74374,-38.6126 -0.67753,-1.7151 -1.08955,-3.8014 -0.91557,-4.6363 0.41894,-2.0105 -34.69883,-165.97107 -36.40921,-169.99014 -0.72988,-1.71508 -1.18455,-3.80193 -1.01036,-4.63743 0.59684,-2.86307 -4.2987,-23.42587 -6.11806,-25.6977 -0.99991,-1.24858 -1.3454,-2.74278 -0.76774,-3.32044 1.06188,-1.06189 -66.47241,-318.14286 -68.98942,-323.91287 -0.74815,-1.71508 -1.22257,-3.78752 -1.05424,-4.60542 0.4139,-2.01147 -20.13745,-97.48343 -21.83128,-101.41778 -0.73838,-1.71508 -1.20205,-3.79572 -1.0304,-4.62365 0.84135,-4.05809 -29.49227,-138.16863 -31.76638,-140.44505 -0.8202,-0.82103 -48.7467,-2.14677 -106.50334,-2.94609 -61.16071,-0.84643 -109.54085,-2.39347 -115.85727,-3.70476 -9.1105,-1.89133 -12.701095,-4.15278 -22.448039,-14.13834 -15.808265,-16.19528 -18.28308,-21.80781 -18.258532,-41.40778 0.03375,-26.94463 8.045879,-39.66361 34.531101,-54.81692 l 11.82,-6.76271 139.48715,1.43581 c 76.71792,0.78969 143.03395,2.00146 147.36895,2.69281 11.30665,1.80322 26.9089,16.51203 34.54976,32.57134 6.74474,14.17589 13.24642,37.82575 18.67031,67.91332 l 3.56024,19.74942 H 623.7742 c 90.26805,0 147.75248,0.50132 127.74319,1.11404 -20.00928,0.61272 123.12205,1.41173 318.06961,1.77557 194.9476,0.36384 412.9608,1.26577 484.4738,2.00429 145.8443,1.50614 131.8817,-0.12153 151.126,17.61728 17.692,16.3079 16.0535,-12.63042 16.7625,296.04821 0.7094,308.84659 2.1321,280.94225 -15.2343,298.81099 -11.4475,11.7786 -22.1525,17.0949 -38.0423,18.8927 -7.0619,0.7989 -12.8398,2.0581 -12.8398,2.7982 0,0.7401 -3.742,0.9887 -8.3155,0.5526 -5.0305,-0.4798 -8.3156,0.089 -8.3156,1.4389 0,1.2276 -1.2473,1.7534 -2.7718,1.1684 -1.5246,-0.585 -69.5821,6.8722 -151.239,16.5717 -81.6569,9.6995 -162.4996,19.1761 -179.6504,21.0591 -17.1508,1.883 -32.5866,3.9586 -34.3016,4.6124 -1.7151,0.6538 -3.9335,1.0024 -4.9298,0.7746 -2.4094,-0.5509 -151.1431,16.5087 -155.1445,17.7949 -1.7151,0.5512 -8.7313,1.4142 -15.5916,1.9177 -6.8603,0.5035 -94.1601,10.5343 -193.99951,22.2907 -128.30608,15.1084 -182.01984,22.174 -183.21007,24.0998 -1.27714,2.0665 -1.88767,2.1133 -2.52753,0.1938 -0.64293,-1.9289 -11.02082,-1.243 -43.62715,2.8831 -23.53094,2.9777 -43.34364,5.414 -44.02819,5.414 -1.48965,0 -1.36556,18.9845 0.14074,21.5231 0.57882,0.9756 1.38036,5.936 1.78119,11.0231 0.40083,5.0872 1.42085,10.3692 2.26671,11.7378 0.84586,1.3686 1.268,5.0616 0.93812,8.2066 -0.3299,3.145 0.20853,5.7182 1.1965,5.7182 3.60109,0 -1.06164,28.4968 -7.31331,44.696 -3.5301,9.1471 -6.70275,18.0121 -7.05038,19.7 -0.34761,1.6878 -1.8014,4.3273 -3.23063,5.8654 -6.63061,7.1358 -3.40586,8.0512 33.26218,9.4421 19.72343,0.7482 230.03183,1.3632 467.35203,1.3667 l 431.4912,0.01 12.351,7.4225 c 16.0362,9.6372 19.9675,13.4653 26.8891,26.1824 16.1029,29.5864 4.2847,63.9098 -28.4738,82.6959 l -11.0109,6.3145 -68.6033,-0.4887 c -37.7318,-0.2688 -274.8807,-0.9616 -526.99765,-1.5397 z" id="path1795"></path>
    <path d="m 540.38238,1654.7216 c -34.14265,-10.8274 -70.95051,-46.7977 -82.06542,-80.198 -3.91505,-11.7648 -4.37779,-17.0757 -3.74445,-42.976 0.71377,-29.1891 0.81656,-29.7439 8.36446,-45.1439 21.91456,-44.7125 67.60961,-74.6593 114.14115,-74.8038 16.31399,-0.051 41.67365,6.9173 57.60969,15.8293 7.43689,4.1589 19.32639,13.3665 26.42111,20.4612 34.30426,34.3042 47.04821,81.7686 33.10595,123.3018 -12.4819,37.1829 -44.35615,69.6262 -81.16588,82.615 -18.82288,6.6418 -53.24018,7.0749 -72.66661,0.9144 z" id="path1834"></path>
  </symbol>

  <symbol enable-background="new 0 0 50 50" id="down_arrow_icon" version="1.1" xml:space="preserve" sodipodiDocname="down_arrow_icon.svg" inkscapeVersion="1.1 (c68e22c387, 2021-05-23)" xmlnsInkscape="http://www.inkscape.org/namespaces/inkscape" xmlnsSodipodi="http://sodipodi.sourceforge.net/DTD/sodipodi-0.dtd" xmlns="http://www.w3.org/2000/svg" xmlnsSvg="http://www.w3.org/2000/svg" viewBox="0 0 50 50">
    <defs id="defs9"></defs>
    <sodipodi:namedview id="namedview7" pagecolor="#ffffff" bordercolor="#666666" borderopacity="1.0" inkscapePageshadow="2" inkscapePageopacity="0.0" inkscapePagecheckerboard="0" showgrid="false" inkscapeZoom="17.24" inkscapeCx="24.970998" inkscapeCy="24.854988" inkscapeWindowWidth="1842" inkscapeWindowHeight="1051" inkscapeWindowX="69" inkscapeWindowY="-9" inkscapeWindowMaximized="1" inkscapeCurrentLayer="Layer_1"></sodipodi:namedview>
    <rect fill="none" height="50" width="50" id="rect2"></rect>
    <polygon points="47.25,15 45.164,12.914 25,33.078 4.836,12.914 2.75,15 25,37.25 " id="polygon4"></polygon>
    <path d="M 13.906273,26.087248 2.8126598,14.993521 3.8283034,13.979121 4.8439469,12.964722 14.922015,23.042665 25.000083,33.120608 35.078256,23.042435 45.156429,12.964262 l 1.015099,1.015099 1.0151,1.0151 -11.093371,11.093257 -11.093371,11.093256 z" id="path1677"></path>
    <path d="M 13.935266,26.058236 2.8706462,14.993502 3.8573056,14.008124 4.8439651,13.022745 14.893043,23.071697 C 20.420035,28.598621 24.968166,33.12065 25,33.12065 c 0.03183,0 4.580061,-4.522126 10.107172,-10.049168 l 10.049293,-10.049167 0.986076,0.986076 0.986076,0.986076 L 36.064252,26.058718 24.999886,37.12297 Z" id="path1716"></path>
  </symbol>

  <symbol xmlns="http://www.w3.org/2000/svg" viewBox="0 0 48 48" id="arrow_prew_icon">
    <path d="M30.83 32.67l-9.17-9.17 9.17-9.17-2.83-2.83-12 12 12 12z"></path>
    <path d="M0-.5h48v48h-48z" fill="none"></path>
  </symbol>

  <symbol version="1.1" id="arrow_next_icon" sodipodiDocname="arrow_next_icon.svg" inkscapeVersion="1.1 (c68e22c387, 2021-05-23)" xmlnsInkscape="http://www.inkscape.org/namespaces/inkscape" xmlnsSodipodi="http://sodipodi.sourceforge.net/DTD/sodipodi-0.dtd" xmlns="http://www.w3.org/2000/svg" xmlnsSvg="http://www.w3.org/2000/svg" viewBox="0 0 48 48">
    <defs id="defs10"></defs>
    <sodipodi:namedview id="namedview8" pagecolor="#ffffff" bordercolor="#666666" borderopacity="1.0" inkscapePageshadow="2" inkscapePageopacity="0.0" inkscapePagecheckerboard="0" showgrid="false" inkscapeZoom="17.958333" inkscapeCx="23.972158" inkscapeCy="24.027842" inkscapeWindowWidth="1842" inkscapeWindowHeight="1051" inkscapeWindowX="69" inkscapeWindowY="-9" inkscapeWindowMaximized="1" inkscapeCurrentLayer="svg6"></sodipodi:namedview>
    <path d="M 16,32.67 25.17,23.5 16,14.33 l 2.83,-2.83 12,12 -12,12 z" id="path2"></path>
    <path d="M0-.5h48v48h-48z" fill="none" id="path4"></path>
  </symbol>
  
    <symbol enable-background="new 0 0 24 24" id="twitter_icon" version="1.1" xml:space="preserve" xmlns="http://www.w3.org/2000/svg" xmlns:xlink="http://www.w3.org/1999/xlink" viewBox="0 0 24 24">
    <path d="M23.4,5c-0.1-0.2-0.4-0.2-0.6-0.1c-0.2,0.1-0.5,0.2-0.7,0.3c0.3-0.4,0.6-0.9,0.8-1.5c0.1-0.2,0-0.4-0.2-0.5s-0.4-0.1-0.5,0  c-0.8,0.5-1.6,0.8-2.5,1c-0.9-0.9-2.2-1.4-3.5-1.4c-2.8,0-5,2.2-5,4.9c0,0.2,0,0.3,0,0.5C8,7.8,5,6.2,2.9,3.7  C2.8,3.6,2.6,3.5,2.5,3.5c-0.2,0-0.3,0.1-0.4,0.2C1.7,4.5,1.4,5.4,1.4,6.2c0,1,0.3,2,0.9,2.9C2.3,9.1,2.2,9,2.1,9  c-0.1-0.1-0.3,0-0.5,0C1.5,9.1,1.4,9.3,1.4,9.4c0,1.6,0.8,3.1,2,4c-0.1,0-0.2,0.1-0.3,0.2C3,13.7,2.9,13.9,3,14  c0.5,1.6,1.8,2.8,3.4,3.2c-1.6,0.9-3.5,1.3-5.4,1.1c-0.2,0-0.4,0.1-0.5,0.3c-0.1,0.2,0,0.4,0.2,0.6c2.2,1.4,4.6,2.1,7.2,2.1  c8.4,0,13.3-6.7,13.3-13.1c0-0.1,0-0.2,0-0.3c0.8-0.6,1.6-1.4,2.2-2.3C23.5,5.4,23.5,5.1,23.4,5z"></path>
  </symbol>
</svg>