<?xml version="1.0" encoding="UTF-8" standalone="no"?>
<svg
   enable-background="new 0 0 50 50"
   height="50px"
   id="Layer_1"
   version="1.1"
   viewBox="0 0 50 50"
   width="50px"
   xml:space="preserve"
   sodipodi:docname="down_arrow_icon.svg"
   inkscape:version="1.1 (c68e22c387, 2021-05-23)"
   xmlns:inkscape="http://www.inkscape.org/namespaces/inkscape"
   xmlns:sodipodi="http://sodipodi.sourceforge.net/DTD/sodipodi-0.dtd"
   xmlns="http://www.w3.org/2000/svg"
   xmlns:svg="http://www.w3.org/2000/svg"><defs
     id="defs9" /><sodipodi:namedview
     id="namedview7"
     pagecolor="#ffffff"
     bordercolor="#666666"
     borderopacity="1.0"
     inkscape:pageshadow="2"
     inkscape:pageopacity="0.0"
     inkscape:pagecheckerboard="0"
     showgrid="false"
     inkscape:zoom="17.24"
     inkscape:cx="24.970998"
     inkscape:cy="24.854988"
     inkscape:window-width="1842"
     inkscape:window-height="1051"
     inkscape:window-x="69"
     inkscape:window-y="-9"
     inkscape:window-maximized="1"
     inkscape:current-layer="Layer_1" /><rect
     fill="none"
     height="50"
     width="50"
     id="rect2" /><polygon
     points="47.25,15 45.164,12.914 25,33.078 4.836,12.914 2.75,15 25,37.25 "
     id="polygon4" /><path
     style="fill:#f9f9f9;stroke-width:0.0580046"
     d="M 13.906273,26.087248 2.8126598,14.993521 3.8283034,13.979121 4.8439469,12.964722 14.922015,23.042665 25.000083,33.120608 35.078256,23.042435 45.156429,12.964262 l 1.015099,1.015099 1.0151,1.0151 -11.093371,11.093257 -11.093371,11.093256 z"
     id="path1677" /><path
     style="fill:#f9f9f9;stroke-width:0.0580046"
     d="M 13.935266,26.058236 2.8706462,14.993502 3.8573056,14.008124 4.8439651,13.022745 14.893043,23.071697 C 20.420035,28.598621 24.968166,33.12065 25,33.12065 c 0.03183,0 4.580061,-4.522126 10.107172,-10.049168 l 10.049293,-10.049167 0.986076,0.986076 0.986076,0.986076 L 36.064252,26.058718 24.999886,37.12297 Z"
     id="path1716" /></svg>
