<?xml version="1.0" encoding="UTF-8" standalone="no"?>
<svg
   height="1792"
   viewBox="0 0 1792 1792"
   width="1792"
   version="1.1"
   id="svg4"
   sodipodi:docname="shopping-cart.svg"
   inkscape:version="1.1 (c68e22c387, 2021-05-23)"
   xmlns:inkscape="http://www.inkscape.org/namespaces/inkscape"
   xmlns:sodipodi="http://sodipodi.sourceforge.net/DTD/sodipodi-0.dtd"
   xmlns="http://www.w3.org/2000/svg"
   xmlns:svg="http://www.w3.org/2000/svg">
  <defs
     id="defs8" />
  <sodipodi:namedview
     id="namedview6"
     pagecolor="#ffffff"
     bordercolor="#666666"
     borderopacity="1.0"
     inkscape:pageshadow="2"
     inkscape:pageopacity="0.0"
     inkscape:pagecheckerboard="0"
     showgrid="false"
     inkscape:zoom="0.48102679"
     inkscape:cx="899.11832"
     inkscape:cy="888.72389"
     inkscape:window-width="1842"
     inkscape:window-height="1051"
     inkscape:window-x="69"
     inkscape:window-y="-9"
     inkscape:window-maximized="1"
     inkscape:current-layer="svg4" />
  <path
     d="M704 1536q0 52-38 90t-90 38-90-38-38-90 38-90 90-38 90 38 38 90zm896 0q0 52-38 90t-90 38-90-38-38-90 38-90 90-38 90 38 38 90zm128-1088v512q0 24-16.5 42.5t-40.5 21.5l-1044 122q13 60 13 70 0 16-24 64h920q26 0 45 19t19 45-19 45-45 19h-1024q-26 0-45-19t-19-45q0-11 8-31.5t16-36 21.5-40 15.5-29.5l-177-823h-204q-26 0-45-19t-19-45 19-45 45-19h256q16 0 28.5 6.5t19.5 15.5 13 24.5 8 26 5.5 29.5 4.5 26h1201q26 0 45 19t19 45z"
     id="path2" />
  <path
     style="fill:#f9f9f9;stroke-width:2.07889"
     d="m 495.5886,1404.5537 c -25.47174,-6.892 -45.36999,-32.5697 -45.46406,-58.6691 -0.0721,-19.9976 10.26458,-45.3526 43.64462,-107.0566 l 16.62853,-30.7383 -88.75204,-412.71919 -88.75205,-412.71916 -111.35631,-0.58786 -111.35632,-0.58785 -8.92152,-4.76375 c -11.414753,-6.09504 -23.902952,-18.59364 -29.946395,-29.97134 -3.852576,-7.25306 -4.743471,-12.22619 -4.76375,-26.59206 -0.02216,-15.70037 0.657985,-18.90336 6.100293,-28.72782 7.397839,-13.35459 17.067878,-22.1957 31.506962,-28.80613 l 10.79641,-4.94276 144.17549,0.57478 c 143.58121,0.57242 144.21035,0.59345 152.63283,5.10173 9.46234,5.06489 21.75114,17.77049 26.99455,27.91011 6.91259,13.36747 11.7952,30.5399 17.37612,61.11283 l 5.69234,31.18329 608.9579,1.03945 608.9579,1.03944 10.6182,5.60194 c 5.8399,3.08107 14.8951,10.35903 20.1226,16.17324 17.3448,19.29157 16.1646,-3.52606 15.5451,300.56117 l -0.5504,270.14625 -4.7637,8.92152 c -6.0263,11.28598 -18.6616,23.98917 -29.2172,29.37427 -4.4921,2.2917 -14.1198,5.0967 -21.3949,6.2334 -7.2751,1.1367 -242.8924,28.8093 -523.594,61.4947 -280.70162,32.6853 -512.57135,59.898 -515.26605,60.4725 -4.02073,0.8572 -4.72133,2.0528 -3.90631,6.6662 0.54625,3.0919 3.53783,19.0551 6.64799,35.4739 6.62589,34.9787 6.45097,36.3412 -9.15668,71.3186 l -10.03021,22.4782 468.02736,0.5421 468.0273,0.542 10.3402,5.0883 c 40.5864,19.972 49.8604,69.9242 18.7596,101.0438 -4.6307,4.6335 -13.0725,10.7142 -18.7596,13.5128 l -10.3402,5.0883 -522.8399,0.3897 c -412.08198,0.3072 -524.8695,-0.1594 -532.4207,-2.2026 z"
     id="path1677" />
  <path
     style="fill:#f9f9f9;stroke-width:2.07889"
     d="m 548.82599,1659.6566 c -22.93045,-4.906 -41.00989,-15.4813 -61.47953,-35.9613 -27.20467,-27.2185 -37.19713,-50.6901 -37.2429,-87.4813 -0.0396,-31.8192 7.4044,-53.1142 27.36798,-78.2913 30.02199,-37.8623 78.31348,-55.7308 124.78344,-46.1716 43.10795,8.8676 83.32655,47.3915 96.38456,92.3231 5.14272,17.6958 4.70894,49.7502 -0.91434,67.5639 -16.59879,52.5822 -69.01032,91.8307 -121.87369,91.2654 -6.86033,-0.073 -19.02181,-1.5345 -27.02552,-3.2469 z"
     id="path1716" />
  <path
     style="fill:#f9f9f9;stroke-width:2.07889"
     d="m 1444.826,1659.6566 c -22.9305,-4.906 -41.0099,-15.4813 -61.4795,-35.9613 -27.2047,-27.2185 -37.1972,-50.6901 -37.2429,-87.4813 -0.04,-31.8192 7.4044,-53.1142 27.3679,-78.2913 30.022,-37.8623 78.3135,-55.7308 124.7835,-46.1716 43.1079,8.8676 83.3265,47.3915 96.3845,92.3231 5.1428,17.6958 4.709,49.7502 -0.9143,67.5639 -16.5988,52.5822 -69.0103,91.8307 -121.8737,91.2654 -6.8603,-0.073 -19.0218,-1.5345 -27.0255,-3.2469 z"
     id="path1755" />
  <path
     style="fill:#f9f9f9;stroke-width:2.07889"
     d="m 498.93271,1403.3806 c -25.78962,-4.4231 -46.72403,-30.0863 -46.74303,-57.3017 -0.004,-6.8603 1.02884,-16.2153 2.29699,-20.7889 3.58291,-12.9217 17.38782,-42.4788 37.50001,-80.2896 10.10896,-19.0048 18.38163,-36.3116 18.38376,-38.4594 0.006,-5.5995 -175.10489,-819.35123 -176.96192,-822.35595 -1.16266,-1.88122 -29.01412,-2.70484 -112.38662,-3.32347 l -110.84093,-0.82246 -8.31554,-4.78939 C 90.607019,368.76539 76.721253,354.38364 71.69584,344.00252 65.990826,332.21753 65.976408,308.0997 71.667371,296.37793 78.518287,282.26699 87.439035,273.32172 102.2777,265.68346 l 14.13993,-7.27858 144.82633,1.24768 144.82634,1.24767 8.98457,6.31677 c 20.78196,14.61113 30.49662,35.70669 40.29243,87.49576 l 5.54234,29.30155 609.42116,1.55005 c 586.7752,1.49246 609.7007,1.69272 616.9465,5.38923 12.0314,6.13796 30.5414,24.28223 33.4397,32.77905 2.0225,5.92892 2.7433,68.69773 3.2241,280.73836 l 0.6192,273.10207 -5.1151,8.58702 c -9.0691,15.22511 -23.3569,27.84251 -36.5667,32.29191 -8.3377,2.8083 -62.2849,9.305 -554.0232,66.7192 -439.20298,51.2803 -496.16242,58.0346 -499.45247,59.2247 -3.65023,1.3204 -3.32081,5.9213 2.80947,39.2405 3.47313,18.877 4.96405,32.6345 4.16702,38.4516 -0.68256,4.9818 -5.94836,19.8462 -11.70176,33.0319 -5.7534,13.1857 -9.88947,24.5454 -9.19127,25.2438 0.69819,0.6983 211.40935,1.5883 468.24701,1.9777 l 466.9776,0.7079 10.0249,5.08 c 13.0107,6.5931 25.8021,19.5103 31.3448,31.6534 6.3029,13.8086 6.1746,35.3943 -0.2885,48.5296 -6.1074,12.4126 -19.2298,25.5654 -31.9236,31.9979 l -9.9005,5.0169 -521.3499,-0.2602 c -286.74241,-0.1431 -525.09184,-0.9019 -529.66539,-1.6863 z"
     id="path1942" />
  <path
     style="fill:#f9f9f9;stroke-width:2.07889"
     d="m 498.93271,1403.3806 c -25.78962,-4.4231 -46.72403,-30.0863 -46.74303,-57.3017 -0.004,-6.8603 1.02884,-16.2153 2.29699,-20.7889 3.65545,-13.1833 17.52956,-42.9041 37.46034,-80.2466 10.13077,-18.9811 18.41702,-36.2879 18.4139,-38.4594 -0.008,-6.1387 -175.76025,-821.7436 -177.43517,-823.41851 -0.81667,-0.81667 -51.26833,-1.85419 -112.11481,-2.30561 l -110.62996,-0.82076 -8.31554,-4.78939 C 90.607019,368.76539 76.721253,354.38364 71.69584,344.00252 65.990826,332.21753 65.976408,308.0997 71.667371,296.37793 78.515485,282.27277 87.436222,273.3238 102.2777,265.67075 l 14.13993,-7.29129 144.82626,1.26039 144.82626,1.26038 8.98466,6.31677 c 20.78198,14.61104 30.49666,35.70661 40.29249,87.49576 l 5.54234,29.30155 609.42116,1.55005 c 586.7752,1.49246 609.7007,1.69272 616.9465,5.38923 12.0314,6.13796 30.5414,24.28223 33.4397,32.77905 2.0225,5.92892 2.7433,68.69773 3.2241,280.73836 l 0.6192,273.10207 -5.1151,8.58702 c -9.0691,15.22511 -23.3569,27.84251 -36.5667,32.29191 -8.3377,2.8083 -62.2849,9.305 -554.0232,66.7192 -439.20298,51.2803 -496.16242,58.0346 -499.45247,59.2247 -3.65023,1.3204 -3.32081,5.9213 2.80947,39.2405 3.45076,18.7555 4.96218,32.6482 4.17607,38.3857 -0.67762,4.9456 -5.90915,19.8442 -11.62563,33.1081 -5.71651,13.2638 -9.85665,24.6532 -9.20032,25.3096 0.65632,0.6565 211.33322,1.5122 468.17088,1.9016 l 466.9776,0.7079 10.0249,5.08 c 13.0107,6.5931 25.8021,19.5103 31.3448,31.6534 6.0146,13.177 6.0651,35.1733 0.1104,48.1245 -5.4269,11.8031 -19.488,25.8993 -32.3225,32.403 l -9.9005,5.0169 -521.3499,-0.2602 c -286.74241,-0.1431 -525.09184,-0.9019 -529.66539,-1.6863 z"
     id="path1981" />
  <path
     style="fill:#cccccc;stroke-width:2.07889"
     d="m 498.93271,1403.3805 c -17.6564,-3.0281 -33.49398,-16.1926 -42.1026,-34.9962 -4.47763,-9.7805 -5.05361,-13.473 -4.24372,-27.2054 1.15216,-19.5355 9.64897,-40.4652 38.23819,-94.1898 10.74809,-20.1978 19.542,-38.2286 19.542,-40.0684 0,-3.5513 -17.57725,-85.9591 -102.90006,-482.42883 C 342.5999,423.07599 334.11667,384.35641 332.61601,382.85575 331.96968,382.20944 281.65741,381.28936 220.81093,380.81112 95.693269,379.82774 104.16684,380.97843 85.493835,362.43554 71.617438,348.65584 67.665759,339.34241 67.609461,320.28512 67.53512,295.12031 78.419854,277.97311 102.2777,265.67075 l 14.13993,-7.29129 144.4826,1.26038 c 143.86721,1.25502 144.51359,1.27973 151.7587,5.80074 23.12511,14.43027 33.90776,38.24217 44.6461,98.59438 l 3.55487,19.97927 609.436,1.55009 c 586.7896,1.49249 609.7156,1.69275 616.9614,5.38926 12.0313,6.13796 30.5413,24.28224 33.4397,32.77906 2.0224,5.92873 2.7433,68.64434 3.2239,280.47117 0.6109,269.21187 0.564,272.93869 -3.5279,280.64965 -8.013,15.10001 -23.3216,28.80574 -37.5345,33.60434 -8.0731,2.7257 -80.2218,11.4159 -562.3388,67.7329 -419.05551,48.9507 -487.93194,57.1179 -491.13687,58.2374 -3.63149,1.2686 -3.33236,5.3893 2.82343,38.894 3.49971,19.0482 4.97948,32.74 4.17378,38.6182 -0.68655,5.009 -5.8784,20.0213 -11.53746,33.3607 l -10.28918,24.2535 55.48897,1.2848 c 30.51892,0.7067 241.05452,1.4083 467.85683,1.5592 l 412.368,0.2743 12.5567,6.6927 c 46.6297,24.8534 44.9724,86.6476 -2.9755,110.9447 l -9.9004,5.0169 -521.3499,-0.2602 c -286.74241,-0.1431 -525.09184,-0.9019 -529.66539,-1.6864 z"
     id="path1641" />
  <path
     style="fill:#cccccc;stroke-width:2.07889"
     d="m 546.13551,1657.7941 c -40.7944,-10.9804 -80.6437,-50.0107 -91.14764,-89.2744 -3.65671,-13.6688 -3.56758,-51.0951 0.15499,-65.0799 10.95124,-41.141 50.57158,-79.347 92.64368,-89.3367 47.87694,-11.3679 95.92408,6.2544 126.276,46.3145 30.26736,39.9485 35.56372,85.6382 14.82057,127.8515 -15.93084,32.4201 -50.15571,60.759 -84.03592,69.5837 -15.0692,3.925 -44.01883,3.8961 -58.71168,-0.059 z"
     id="path1680" />
  <path
     style="fill:#f9f9f9;stroke-width:2.07889"
     d="m 1442.1355,1657.7941 c -40.7944,-10.9804 -80.6437,-50.0107 -91.1476,-89.2744 -3.6568,-13.6688 -3.5676,-51.0951 0.1549,-65.0799 10.9513,-41.141 50.5716,-79.347 92.6437,-89.3367 47.877,-11.3679 95.9241,6.2544 126.276,46.3145 30.2674,39.9485 35.5637,85.6382 14.8206,127.8515 -15.9308,32.4201 -50.1557,60.759 -84.0359,69.5837 -15.0692,3.925 -44.0188,3.8961 -58.7117,-0.059 z"
     id="path1719" />
  <path
     style="fill:#f9f9f9;stroke-width:2.07889"
     d="m 953.16937,1403.2597 c -450.16707,-1.032 -458.54207,-1.1241 -466.62065,-5.13 -19.73511,-9.7862 -32.31207,-30.0969 -32.31207,-52.1813 0,-18.0596 6.3188,-36.4799 25.98099,-75.7387 8.59252,-17.1564 14.91528,-31.2078 14.05059,-31.2253 -0.86469,-0.017 -0.50349,-0.7191 0.8027,-1.5592 3.98805,-2.5648 15.29565,-26.6334 15.29565,-32.5574 0,-5.6127 -5.45743,-32.825 -7.74374,-38.6126 -0.67753,-1.7151 -1.08955,-3.8014 -0.91557,-4.6363 0.41894,-2.0105 -34.69883,-165.97107 -36.40921,-169.99014 -0.72988,-1.71508 -1.18455,-3.80193 -1.01036,-4.63743 0.59684,-2.86307 -4.2987,-23.42587 -6.11806,-25.6977 -0.99991,-1.24858 -1.3454,-2.74278 -0.76774,-3.32044 1.06188,-1.06189 -66.47241,-318.14286 -68.98942,-323.91287 -0.74815,-1.71508 -1.22257,-3.78752 -1.05424,-4.60542 0.4139,-2.01147 -20.13745,-97.48343 -21.83128,-101.41778 -0.73838,-1.71508 -1.20205,-3.79572 -1.0304,-4.62365 0.84135,-4.05809 -29.49227,-138.16863 -31.76638,-140.44505 -0.8202,-0.82103 -48.7467,-2.14677 -106.50334,-2.94609 -61.16071,-0.84643 -109.54085,-2.39347 -115.85727,-3.70476 -9.1105,-1.89133 -12.701095,-4.15278 -22.448039,-14.13834 -15.808265,-16.19528 -18.28308,-21.80781 -18.258532,-41.40778 0.03375,-26.94463 8.045879,-39.66361 34.531101,-54.81692 l 11.82,-6.76271 139.48715,1.43581 c 76.71792,0.78969 143.03395,2.00146 147.36895,2.69281 11.30665,1.80322 26.9089,16.51203 34.54976,32.57134 6.74474,14.17589 13.24642,37.82575 18.67031,67.91332 l 3.56024,19.74942 H 623.7742 c 90.26805,0 147.75248,0.50132 127.74319,1.11404 -20.00928,0.61272 123.12205,1.41173 318.06961,1.77557 194.9476,0.36384 412.9608,1.26577 484.4738,2.00429 145.8443,1.50614 131.8817,-0.12153 151.126,17.61728 17.692,16.3079 16.0535,-12.63042 16.7625,296.04821 0.7094,308.84659 2.1321,280.94225 -15.2343,298.81099 -11.4475,11.7786 -22.1525,17.0949 -38.0423,18.8927 -7.0619,0.7989 -12.8398,2.0581 -12.8398,2.7982 0,0.7401 -3.742,0.9887 -8.3155,0.5526 -5.0305,-0.4798 -8.3156,0.089 -8.3156,1.4389 0,1.2276 -1.2473,1.7534 -2.7718,1.1684 -1.5246,-0.585 -69.5821,6.8722 -151.239,16.5717 -81.6569,9.6995 -162.4996,19.1761 -179.6504,21.0591 -17.1508,1.883 -32.5866,3.9586 -34.3016,4.6124 -1.7151,0.6538 -3.9335,1.0024 -4.9298,0.7746 -2.4094,-0.5509 -151.1431,16.5087 -155.1445,17.7949 -1.7151,0.5512 -8.7313,1.4142 -15.5916,1.9177 -6.8603,0.5035 -94.1601,10.5343 -193.99951,22.2907 -128.30608,15.1084 -182.01984,22.174 -183.21007,24.0998 -1.27714,2.0665 -1.88767,2.1133 -2.52753,0.1938 -0.64293,-1.9289 -11.02082,-1.243 -43.62715,2.8831 -23.53094,2.9777 -43.34364,5.414 -44.02819,5.414 -1.48965,0 -1.36556,18.9845 0.14074,21.5231 0.57882,0.9756 1.38036,5.936 1.78119,11.0231 0.40083,5.0872 1.42085,10.3692 2.26671,11.7378 0.84586,1.3686 1.268,5.0616 0.93812,8.2066 -0.3299,3.145 0.20853,5.7182 1.1965,5.7182 3.60109,0 -1.06164,28.4968 -7.31331,44.696 -3.5301,9.1471 -6.70275,18.0121 -7.05038,19.7 -0.34761,1.6878 -1.8014,4.3273 -3.23063,5.8654 -6.63061,7.1358 -3.40586,8.0512 33.26218,9.4421 19.72343,0.7482 230.03183,1.3632 467.35203,1.3667 l 431.4912,0.01 12.351,7.4225 c 16.0362,9.6372 19.9675,13.4653 26.8891,26.1824 16.1029,29.5864 4.2847,63.9098 -28.4738,82.6959 l -11.0109,6.3145 -68.6033,-0.4887 c -37.7318,-0.2688 -274.8807,-0.9616 -526.99765,-1.5397 z"
     id="path1795" />
  <path
     style="fill:#f9f9f9;stroke-width:2.07889"
     d="m 540.38238,1654.7216 c -34.14265,-10.8274 -70.95051,-46.7977 -82.06542,-80.198 -3.91505,-11.7648 -4.37779,-17.0757 -3.74445,-42.976 0.71377,-29.1891 0.81656,-29.7439 8.36446,-45.1439 21.91456,-44.7125 67.60961,-74.6593 114.14115,-74.8038 16.31399,-0.051 41.67365,6.9173 57.60969,15.8293 7.43689,4.1589 19.32639,13.3665 26.42111,20.4612 34.30426,34.3042 47.04821,81.7686 33.10595,123.3018 -12.4819,37.1829 -44.35615,69.6262 -81.16588,82.615 -18.82288,6.6418 -53.24018,7.0749 -72.66661,0.9144 z"
     id="path1834" />
</svg>
